<?xml version="1.0" encoding="UTF-8" standalone="no"?>
<!-- Created with Inkscape (http://www.inkscape.org/) -->

<svg
   width="444"
   viewBox="0 0 126.7993 34.007949"
   version="1.1"
   id="svg69"
   xmlns="http://www.w3.org/2000/svg"
   xmlns:svg="http://www.w3.org/2000/svg"
   xmlns:rdf="http://www.w3.org/1999/02/22-rdf-syntax-ns#"
   xmlns:cc="http://creativecommons.org/ns#"
   xmlns:dc="http://purl.org/dc/elements/1.1/">
  <title
     id="title18">Контакты</title>
  <defs
     id="defs66" />
  <g
     id="layer1"
     transform="translate(-3.5539248,-10.971222)">
    <g
       aria-label="ibo7"
       id="text74"
       style="font-size:12.1045px;font-family:'Arial Black';-inkscape-font-specification:'Arial Black, Normal';fill:#8b8b8b;fill-rule:evenodd;stroke-width:0.494581">
      <path
         d="m 22.977291,11.124896 h 2.405533 v 1.637181 h -2.405533 z m 0,2.387802 h 2.405533 v 6.276845 h -2.405533 z"
         id="path6322" />
      <path
         d="m 26.931348,11.124896 h 2.429175 v 3.002484 q 0.360534,-0.378266 0.815635,-0.567399 0.461011,-0.189133 1.016589,-0.189133 1.146618,0 1.897238,0.827456 0.750621,0.821546 0.750621,2.364161 0,1.028409 -0.342803,1.814492 -0.342803,0.780173 -0.951574,1.17026 -0.602861,0.384176 -1.341661,0.384176 -0.632413,0 -1.158439,-0.271879 -0.395997,-0.212774 -0.862918,-0.797904 v 0.927933 h -2.251863 z m 2.411444,5.508493 q 0,0.809725 0.30143,1.17617 0.307341,0.360534 0.774262,0.360534 0.43146,0 0.721069,-0.354624 0.29552,-0.360534 0.29552,-1.205721 0,-0.744711 -0.289609,-1.093424 -0.283699,-0.348714 -0.691517,-0.348714 -0.490563,0 -0.803815,0.366445 -0.30734,0.360534 -0.30734,1.099334 z"
         id="path6324" />
      <path
         d="m 34.697614,16.668852 q 0,-1.436227 0.969306,-2.36416 0.969306,-0.933844 2.618307,-0.933844 1.885418,0 2.848813,1.093424 0.774263,0.88065 0.774263,2.169117 0,1.448048 -0.963395,2.375981 -0.957485,0.922023 -2.65377,0.922023 -1.513063,0 -2.446906,-0.768352 -1.146618,-0.951575 -1.146618,-2.494189 z m 2.411444,-0.0059 q 0,0.839277 0.336893,1.241184 0.342803,0.401908 0.857008,0.401908 0.520115,0 0.851097,-0.395997 0.336893,-0.395997 0.336893,-1.270736 0,-0.815635 -0.336893,-1.211632 -0.336893,-0.401907 -0.833366,-0.401907 -0.526026,0 -0.868829,0.407817 -0.342803,0.401907 -0.342803,1.229363 z"
         id="path6326" />
      <path
         d="m 42.877608,11.124896 h 7.027466 v 1.62536 q -0.916112,0.827456 -1.530794,1.790852 -0.74471,1.170259 -1.176169,2.606486 -0.342803,1.117066 -0.461011,2.641949 h -2.399623 q 0.283699,-2.121834 0.89247,-3.558061 0.608772,-1.436227 1.926791,-3.073408 h -4.27913 z"
         id="path6328" />
      <path
         d="m 57.245791,13.004404 -0.7388,4.675126 q -0.02364,0.14185 -0.02364,0.206864 0,0.106387 0.0591,0.165491 0.0591,0.0591 0.177312,0.0591 0.271879,0 0.614682,-0.242326 0.508294,-0.354624 0.833366,-1.022499 0.330983,-0.673786 0.330983,-1.62536 0,-1.560346 -0.898381,-2.464637 -0.89247,-0.904291 -2.399623,-0.904291 -1.111155,0 -2.027267,0.531936 -0.910201,0.531936 -1.406675,1.542614 -0.490563,1.010679 -0.490563,2.234131 0,1.903149 1.069782,3.020215 1.075693,1.111155 2.771978,1.111155 0.827456,0 1.589898,-0.277789 0.768352,-0.277788 1.471689,-0.827456 h 1.211632 q -0.484653,0.573309 -0.922022,0.898381 -0.644234,0.478743 -1.495331,0.780173 -0.851098,0.30143 -1.832225,0.30143 -1.365302,0 -2.452816,-0.632412 -1.087513,-0.632413 -1.702195,-1.802673 -0.608771,-1.170259 -0.608771,-2.576934 0,-1.4776 0.632413,-2.683322 0.638323,-1.211632 1.690374,-1.855865 1.052051,-0.644234 2.494189,-0.644234 1.861776,0 3.026125,1.18208 1.170259,1.18208 1.170259,3.055677 0,1.111155 -0.455101,2.033178 -0.4551,0.922022 -1.33575,1.459868 -0.679696,0.413729 -1.276646,0.413729 -0.354624,0 -0.57922,-0.165492 -0.224595,-0.165491 -0.330982,-0.526025 -0.395997,0.384176 -0.721069,0.543757 -0.325072,0.15367 -0.703338,0.15367 -0.786083,0 -1.353481,-0.656055 -0.567399,-0.656054 -0.567399,-1.879507 0,-1.448048 0.72698,-2.618307 0.726979,-1.170259 1.802672,-1.170259 0.419638,0 0.7388,0.195043 0.325072,0.195043 0.650144,0.679696 L 56.093261,13.0044 Z m -3.936327,3.871312 q 0,0.703337 0.301431,1.093424 0.224595,0.289609 0.573309,0.289609 0.378265,0 0.685606,-0.319161 0.307341,-0.325072 0.537846,-1.288467 0.230506,-0.963396 0.230506,-1.731748 0,-0.579219 -0.248237,-0.874739 -0.248237,-0.29552 -0.59104,-0.29552 -0.390086,0 -0.685606,0.29552 -0.395997,0.395997 -0.602861,1.258915 -0.200954,0.857008 -0.200954,1.572167 z"
         id="path6330" />
      <path
         d="m 60.118246,13.512698 h 2.245952 v 0.916112 q 0.484653,-0.573309 0.975216,-0.815635 0.496473,-0.242327 1.193901,-0.242327 0.75062,0 1.18799,0.265968 0.43737,0.265968 0.715159,0.791994 0.567398,-0.614682 1.03432,-0.833366 0.466921,-0.224596 1.152528,-0.224596 1.010678,0 1.578077,0.602861 0.567398,0.596951 0.567398,1.873597 v 3.942237 h -2.411443 v -3.575792 q 0,-0.425549 -0.165492,-0.632413 -0.242326,-0.325072 -0.60286,-0.325072 -0.425549,0 -0.685607,0.307341 -0.260057,0.307341 -0.260057,0.987037 v 3.238899 h -2.411444 v -3.457584 q 0,-0.413728 -0.04728,-0.561488 -0.07684,-0.236416 -0.265968,-0.378266 -0.189133,-0.14776 -0.44328,-0.14776 -0.413728,0 -0.679696,0.313252 -0.265968,0.313251 -0.265968,1.028409 v 3.203437 h -2.411443 z"
         id="path6332" />
      <path
         d="M 79.173376,17.248071 H 74.35049 q 0.06501,0.579219 0.313251,0.862918 0.348713,0.407818 0.910201,0.407818 0.354624,0 0.673786,-0.177312 0.195043,-0.112298 0.419638,-0.395997 l 2.370071,0.218685 q -0.543757,0.945664 -1.312109,1.359392 -0.768352,0.407818 -2.204579,0.407818 -1.247095,0 -1.962253,-0.348714 -0.715159,-0.354624 -1.187991,-1.117066 -0.466921,-0.768352 -0.466921,-1.802672 0,-1.471689 0.939753,-2.381891 0.945664,-0.910202 2.606487,-0.910202 1.347571,0 2.127744,0.407818 0.780173,0.407818 1.187991,1.18208 0.407817,0.774263 0.407817,2.015447 z M 76.72647,16.095543 q -0.07092,-0.697427 -0.378265,-0.998858 -0.301431,-0.30143 -0.797904,-0.30143 -0.573309,0 -0.916112,0.455101 -0.218685,0.283699 -0.277789,0.845187 z"
         id="path6334" />
      <path
         d="m 80.284529,17.3781 h 2.571024 v 2.411443 h -2.571024 z"
         id="path6336" />
      <path
         d="m 88.990551,17.336727 2.287325,0.260058 q -0.189133,0.715158 -0.620592,1.241184 -0.431459,0.520115 -1.105245,0.809725 -0.667875,0.289609 -1.702195,0.289609 -0.998858,0 -1.666733,-0.183222 -0.661965,-0.189133 -1.140707,-0.602861 -0.478743,-0.419639 -0.750621,-0.981127 -0.271879,-0.561488 -0.271879,-1.48942 0,-0.969306 0.330983,-1.61354 0.242326,-0.472832 0.661965,-0.845187 0.419638,-0.378266 0.862918,-0.561488 0.703338,-0.28961 1.802672,-0.28961 1.536704,0 2.340519,0.549668 0.809725,0.549667 1.134797,1.607629 l -2.263684,0.30143 q -0.106387,-0.401907 -0.390086,-0.602861 -0.277789,-0.206864 -0.750621,-0.206864 -0.59695,0 -0.969306,0.431459 -0.366444,0.425549 -0.366444,1.294378 0,0.774262 0.366444,1.17617 0.366445,0.401907 0.933844,0.401907 0.472832,0 0.791993,-0.242327 0.325072,-0.242326 0.484653,-0.74471 z"
         id="path6338" />
      <path
         d="m 92.087599,16.668852 q 0,-1.436227 0.969305,-2.36416 0.969306,-0.933844 2.618308,-0.933844 1.885417,0 2.848813,1.093424 0.774262,0.88065 0.774262,2.169117 0,1.448048 -0.963395,2.375981 -0.957485,0.922023 -2.65377,0.922023 -1.513062,0 -2.446906,-0.768352 -1.146617,-0.951575 -1.146617,-2.494189 z m 2.411443,-0.0059 q 0,0.839277 0.336893,1.241184 0.342803,0.401908 0.857008,0.401908 0.520115,0 0.851097,-0.395997 0.336893,-0.395997 0.336893,-1.270736 0,-0.815635 -0.336893,-1.211632 -0.336892,-0.401907 -0.833366,-0.401907 -0.526026,0 -0.868829,0.407817 -0.342803,0.401907 -0.342803,1.229363 z"
         id="path6340" />
      <path
         d="m 100.47446,13.512698 h 2.24595 v 0.916112 q 0.48465,-0.573309 0.97522,-0.815635 0.49647,-0.242327 1.1939,-0.242327 0.75062,0 1.18799,0.265968 0.43737,0.265968 0.71516,0.791994 0.56739,-0.614682 1.03432,-0.833366 0.46692,-0.224596 1.15252,-0.224596 1.01068,0 1.57808,0.602861 0.5674,0.596951 0.5674,1.873597 v 3.942237 h -2.41144 v -3.575792 q 0,-0.425549 -0.16549,-0.632413 -0.24233,-0.325072 -0.60287,-0.325072 -0.42554,0 -0.6856,0.307341 -0.26006,0.307341 -0.26006,0.987037 v 3.238899 h -2.41144 v -3.457584 q 0,-0.413728 -0.0473,-0.561488 -0.0768,-0.236416 -0.26596,-0.378266 -0.18914,-0.14776 -0.44328,-0.14776 -0.41373,0 -0.6797,0.313252 -0.26597,0.313251 -0.26597,1.028409 v 3.203437 h -2.41144 z"
         id="path6342" />
    </g>
    <g
       aria-label="000"
       transform="scale(1.006563,0.99347979)"
       id="text351"
       style="font-size:13.4062px;font-family:Fontics;-inkscape-font-specification:'Fontics, Normal';fill:#b7b7b7;fill-rule:evenodd;stroke-width:0.547769">
      <path
         d="m 24.853734,35.806236 c -0.348561,0.04022 -0.616685,0.09384 -1.032277,0.241311 -0.884809,0.294937 -1.474682,0.723935 -1.689181,1.206558 -0.147469,0.348562 -0.08044,0.804372 0.147468,1.246777 0.428998,0.630091 1.166339,1.126121 1.7294,1.568525 0.147468,0.09384 0.08044,0.05363 -0.375374,0.603279 -0.67031,0.589873 -0.925028,0.871403 -1.260183,1.233371 -0.348561,0.415592 -0.589873,0.723935 -0.697122,1.032277 -0.254718,0.723935 -0.147468,1.367433 0.348561,1.702588 0.227905,0.17428 0.978653,0.442404 1.90368,0.469217 0.294937,0.02681 1.112715,0 1.434464,0 0.911622,-0.06703 1.930493,-0.241312 2.480147,-0.884809 0.201093,-0.308343 0.28153,-0.683717 0.241312,-1.099309 -0.08044,-0.683716 -1.152934,-1.943899 -2.212023,-2.909145 0,-0.01341 0.45581,-0.656904 0.603279,-0.804372 0.884809,-0.951841 1.206558,-1.474682 1.072496,-2.185211 -0.05363,-0.254718 -0.254718,-0.589873 -0.49603,-0.804372 -0.348561,-0.294936 -0.884809,-0.536248 -1.354026,-0.630091 -0.201093,-0.02681 -0.589873,-0.02681 -0.844591,0.01341 z m 0.871403,0.938434 c 0.268124,0.06703 0.88481,0.361967 0.88481,0.656904 0.01341,0.268124 -0.09384,0.45581 -0.630092,0.978652 -0.428998,0.442405 -0.965246,0.992059 -0.992059,0.992059 -0.482623,-0.335155 -0.857997,-0.723935 -1.850055,-1.514901 -0.227906,-0.187686 -0.201093,-0.308342 0.147468,-0.536248 0.415592,-0.28153 1.139527,-0.549654 1.662369,-0.603279 0.214499,-0.04022 0.603279,-0.02681 0.777559,0.02681 z m -0.817778,4.397233 c 0.697123,0.737341 1.380839,1.635557 1.555119,1.863462 0.643498,0.911622 0.120656,0.790966 -1.206558,0.790966 -2.708052,0 -2.614209,-0.38878 -1.7294,-1.300401 0.160875,-0.201093 0.536248,-0.522842 1.005466,-1.005465 0.06703,-0.04022 0.241311,-0.227906 0.375373,-0.348562 z"
         id="path6447"
         style="fill:#666" />
      <path
         d="m 34.252441,35.79283 c -0.723935,0.08044 -1.501495,0.56306 -1.876868,1.152933 -0.563061,0.857997 -0.576467,2.39971 -0.268124,3.458799 0.268124,0.804372 0.817778,1.354027 1.675775,1.568526 0.764153,0.28153 1.769618,-0.05362 1.662369,-0.187687 0,0.01341 -0.201093,0.817778 -0.254718,0.95184 -0.294936,0.831185 -0.589873,1.622151 -1.997524,1.16634 -0.938434,-0.348561 -1.166339,0.06703 -0.630091,0.509435 0.442404,0.348562 1.300401,0.965247 2.037742,0.764154 1.193152,-0.348561 1.474682,-1.286995 2.064555,-2.734865 0.455811,-1.112715 0.737341,-2.96277 0.56306,-4.048673 -0.147468,-0.750747 -0.321748,-1.166339 -0.697122,-1.62215 -0.428998,-0.56306 -1.126121,-0.965246 -1.930493,-0.978652 -0.160874,-0.01341 -0.308342,-0.01341 -0.348561,0 z m 0.857997,1.394244 c 0.28153,0.134062 0.496029,0.361968 0.683716,0.697123 0.201093,0.375373 0.308343,0.817778 0.308343,1.407651 -0.04022,0.214499 -0.02681,0.38878 -0.04022,0.38878 0,0 -0.28153,1.394244 -1.219964,1.407651 -0.616685,0 -1.541713,-0.589873 -1.742806,-1.179746 -0.361968,-1.099308 0.522841,-2.279054 1.23337,-2.68124 0.174281,-0.08044 0.268124,-0.120656 0.455811,-0.10725 0.134062,0 0.187687,0.02681 0.321749,0.06703 z"
         id="path6449"
         style="fill:#6c5353" />
      <path
         d="m 41.464955,35.886673 c 0,0 -0.978653,-0.361967 -1.997524,1.005465 -0.214499,0.361967 -0.335155,0.790966 -0.348561,1.260183 0,0.442404 0.241311,0.723935 0.616685,0.56306 0.643498,-0.361967 -0.05362,-0.56306 0.201093,-1.045683 0.335155,-0.630092 0.992059,-0.589873 1.421057,-0.428999 0.77756,0.28153 0.402186,1.756212 0.428999,1.7294 -0.08044,0.603279 -1.018872,2.480147 -3.123645,4.584921 -0.241312,0.308342 -0.482623,1.23337 0.643498,1.541713 0.308342,0.120655 3.284519,0.05362 3.793954,-0.187687 0.469217,-0.375374 0.38878,-1.018871 -0.01341,-1.233371 0,0 -0.05363,-0.01341 -0.08044,-0.02681 -0.361967,-0.09384 -1.219964,0.10725 -1.863462,0.227905 -0.335155,0.02681 -0.898215,0.348562 -0.898215,-0.09384 0,-0.522842 1.152933,-1.783025 1.769618,-2.909146 0.02681,-0.05362 0.04022,-0.09384 0.05362,-0.09384 0,0 0,0 0,-0.01341 0.522842,-1.112715 1.032277,-2.037743 0.737341,-3.311332 -0.174281,-0.750747 -0.56306,-1.206558 -1.152933,-1.501494 -0.04022,-0.01341 -0.08044,-0.04022 -0.08044,-0.04022 0,0 0,-0.01341 -0.01341,-0.01341 -0.02681,0 -0.09384,-0.01341 -0.09384,-0.01341 z"
         id="path6451"
         style="fill:#6c5353" />
      <path
         d="m 47.685409,35.79283 c -0.10725,0 -0.308343,0.02681 -0.469217,0.04022 -0.831185,0.05363 -1.219965,0.187687 -1.380839,0.442405 -0.08044,0.147468 -0.134062,0.428998 -0.187687,1.112714 -0.01341,0.174281 -0.04022,0.361968 -0.04022,0.38878 0,0.02681 -0.01341,0.174281 -0.02681,0.308343 -0.04022,0.335155 -0.160874,1.045683 -0.214499,1.327214 -0.01341,0.107249 -0.06703,0.335155 -0.09384,0.482623 -0.02681,0.147468 -0.06703,0.294936 -0.08044,0.348561 -0.01341,0.02681 -0.04022,0.147468 -0.04022,0.214499 0,0.134062 0.02681,0.174281 0.05362,0.268124 0.09384,0.174281 0.227905,0.268124 0.442404,0.268124 0.241312,0 0.442405,-0.201093 0.49603,-0.509435 0.415592,-1.313808 2.815302,0.589872 2.694646,2.171804 -0.04022,0.321749 -0.147468,0.563061 -0.335155,0.737341 -0.120656,0.134062 -0.268124,0.214499 -0.442405,0.268124 -0.201093,0.05362 -0.683716,0.05362 -0.95184,0 -0.496029,-0.120656 -0.95184,-0.294936 -1.394245,-0.589873 -0.308342,-0.227905 -0.415592,-0.268124 -0.643497,-0.268124 -0.160875,0 -0.201093,0 -0.281531,0.04022 -0.254717,0.134062 -0.375373,0.428998 -0.321748,0.723935 0.04022,0.254718 0.17428,0.482623 0.428998,0.697122 0.536248,0.482623 1.380839,0.884809 2.252242,0.978653 0.308342,0.04022 0.402186,0.04022 0.710528,0 0.442405,-0.04022 0.764154,-0.201093 1.05909,-0.361968 0.603279,-0.375373 1.005465,-0.95184 1.126121,-1.635556 0.05363,-0.268124 0.02681,-0.790966 -0.06703,-1.085902 -0.120656,-0.402186 -0.214499,-0.630092 -0.442405,-1.085903 -0.227905,-0.482623 -0.45581,-0.831184 -0.697122,-1.072496 -0.38878,-0.388779 -0.697123,-0.56306 -1.327214,-0.683716 -0.241312,-0.05363 -0.750747,-0.05363 -1.032277,0 -0.10725,0.01341 -0.2145,0.04022 -0.2145,0.04022 0,0 0.01341,-0.402186 0.04022,-0.603279 0.120656,-0.710529 0.174281,-1.354026 0.174281,-1.541713 v -0.147468 h 0.348561 c 0.455811,-0.01341 1.112714,-0.06703 1.354026,-0.10725 0.375374,-0.05363 0.630092,-0.160874 0.857997,-0.348561 0.10725,-0.09384 0.147468,-0.28153 0.09384,-0.415592 -0.05362,-0.08044 -0.107249,-0.120656 -0.294936,-0.227906 -0.147468,-0.08044 -0.214499,-0.120656 -0.375374,-0.134062 -0.227905,-0.04022 -0.509435,-0.05362 -0.777559,-0.04022 z"
         id="path6453"
         style="fill:#6c5353" />
      <path
         d="m 57.927722,35.766017 c -0.589873,0.09384 -1.072496,1.246777 -1.380839,1.783025 -0.56306,1.246776 -0.643497,1.930493 -0.683716,3.2443 -0.214499,5.268637 3.579456,5.268637 4.732389,2.828709 1.421057,-2.989583 -0.308343,-8.244814 -2.667834,-7.856034 z m 0.06703,1.62215 c 1.206558,-0.656903 2.654428,2.627616 1.648963,5.268637 -0.656904,1.260183 -1.407651,1.394245 -2.051149,0.49603 -0.884809,-1.407652 -0.965246,-5.027326 0.402186,-5.764667 z"
         id="path6455"
         style="fill:#916f6f" />
      <path
         d="m 64.349269,35.766017 c -0.589873,0.09384 -1.072496,1.246777 -1.380839,1.783025 -0.56306,1.246776 -0.643497,1.930493 -0.683716,3.2443 -0.214499,5.268637 3.579456,5.268637 4.732389,2.828709 1.421057,-2.989583 -0.308343,-8.244814 -2.667834,-7.856034 z m 0.06703,1.62215 c 1.206558,-0.656903 2.654428,2.627616 1.648963,5.268637 -0.656904,1.260183 -1.407651,1.394245 -2.051149,0.49603 -0.884809,-1.407652 -0.965246,-5.027326 0.402186,-5.764667 z"
         id="path6457"
         style="fill:#916f6f" />
      <path
         d="m 73.023054,36.262047 c 0,-1.152934 -0.549654,-0.576467 -1.179746,0.790965 -1.005465,2.185211 -1.313807,2.922552 -3.07002,5.29545 -0.134062,0.17428 -0.187686,0.28153 -0.201093,0.428998 -0.06703,0.38878 0.2145,0.77756 0.603279,0.817778 0.08044,0 0.147469,0 0.294937,-0.04022 0.254718,-0.06703 1.863462,-0.160875 2.57399,-0.04022 0,0.442405 -0.442404,1.286995 -0.375373,1.528307 0.01341,0.214499 2.064554,0.241311 2.225429,-0.134062 0.05362,-0.10725 -0.817778,-0.965247 -0.737341,-1.34062 0.214499,0 1.474682,0.509435 1.474682,-0.616685 0,-0.656904 -0.965247,-0.817779 -1.474682,-0.871403 -0.01341,-0.361968 0.294936,-1.286996 0.147468,-1.648963 -0.06703,-0.147468 -0.174281,-0.268124 -0.28153,-0.321749 -0.120656,-0.05362 -0.308343,-0.05362 -0.442405,0 -0.187687,0.10725 -0.321749,0.321749 -0.402186,0.616685 -0.02681,0.174281 -0.08044,0.938434 -0.08044,1.16634 v 0.187687 c -0.536248,0 -2.171804,0.549654 -1.769618,0.08044 0,0 1.206558,-1.756213 1.5149,-2.493554 0.321749,-0.683716 0.911622,-2.18521 1.045684,-2.68124 0.01341,-0.06703 0.05362,-0.147468 0.05362,-0.17428 0.05362,-0.147468 0.06703,-0.321749 0.08044,-0.549654 z"
         id="path6459"
         style="fill:#916f6f" />
      <path
         d="m 75.985808,41.490465 c 0.05362,0.147468 0.08044,0.201093 0.174281,0.201093 h 3.673299 c 0.147468,0 0.187687,-0.147469 0.06703,-0.281531 l -0.38878,-0.415592 c -0.06703,-0.05363 -1.112715,-0.120656 -1.823243,-0.08044 l -1.635557,0.08044 c -0.107249,0 -0.201093,0.09384 -0.147468,0.241312 z"
         id="path6461"
         style="fill:#6c5353" />
      <path
         d="m 83.613927,35.846454 c -0.455811,0.120656 -0.321749,1.809837 -0.925028,2.480147 -0.482623,0.49603 -1.488088,1.394245 -1.501494,1.541713 -0.201093,0.67031 1.313807,0.227906 1.715993,-0.09384 0,-0.201093 -0.134062,3.123645 -0.308342,4.142516 -0.02681,0.160874 -0.375374,1.260183 0.214499,1.260183 h 1.260183 c 0.509436,0 0.214499,-0.764154 0.201093,-0.898216 l -0.160874,-0.84459 c -0.965247,-5.08095 1.648962,-7.641534 -0.160875,-7.641534 -0.107249,0 -0.268124,0.04022 -0.335155,0.05362 z"
         id="path6463"
         style="fill:#916f6f" />
      <path
         d="m 88.466966,35.846454 c -0.455811,0.120656 -0.321749,1.809837 -0.925028,2.480147 -0.482623,0.49603 -1.488088,1.394245 -1.501494,1.541713 -0.201093,0.67031 1.313807,0.227906 1.715993,-0.09384 0,-0.201093 -0.134062,3.123645 -0.308342,4.142516 -0.02681,0.160874 -0.375374,1.260183 0.214499,1.260183 h 1.260183 c 0.509435,0 0.214499,-0.764154 0.201093,-0.898216 l -0.160875,-0.84459 c -0.965246,-5.08095 1.648963,-7.641534 -0.160874,-7.641534 -0.10725,0 -0.268124,0.04022 -0.335155,0.05362 z"
         id="path6465"
         style="fill:#916f6f" />
      <path
         d="m 91.107982,41.490465 c 0.05362,0.147468 0.08044,0.201093 0.17428,0.201093 h 3.673299 c 0.147468,0 0.187687,-0.147469 0.06703,-0.281531 l -0.38878,-0.415592 c -0.06703,-0.05363 -1.112714,-0.120656 -1.823243,-0.08044 l -1.635556,0.08044 c -0.10725,0 -0.201093,0.09384 -0.147469,0.241312 z"
         id="path6467"
         style="fill:#6c5353" />
      <path
         d="m 99.352782,35.886673 c 0,0 -0.978653,-0.361967 -1.997524,1.005465 -0.214499,0.361967 -0.335155,0.790966 -0.348561,1.260183 0,0.442404 0.241311,0.723935 0.616685,0.56306 0.643498,-0.361967 -0.05363,-0.56306 0.201093,-1.045683 0.335155,-0.630092 0.992059,-0.589873 1.421057,-0.428999 0.777558,0.28153 0.402186,1.756212 0.428999,1.7294 -0.08044,0.603279 -1.018872,2.480147 -3.123645,4.584921 -0.241312,0.308342 -0.482623,1.23337 0.643498,1.541713 0.308342,0.120655 3.284516,0.05362 3.793956,-0.187687 0.46922,-0.375374 0.38878,-1.018871 -0.0134,-1.233371 0,0 -0.0536,-0.01341 -0.0804,-0.02681 -0.36196,-0.09384 -1.219959,0.10725 -1.863457,0.227905 -0.335155,0.02681 -0.898215,0.348562 -0.898215,-0.09384 0,-0.522842 1.152933,-1.783025 1.769618,-2.909146 0.02681,-0.05362 0.04022,-0.09384 0.05363,-0.09384 0,0 0,0 0,-0.01341 0.522844,-1.112715 1.032284,-2.037743 0.737344,-3.311332 -0.17428,-0.750747 -0.56306,-1.206558 -1.152936,-1.501494 -0.04022,-0.01341 -0.08044,-0.04022 -0.08044,-0.04022 0,0 0,-0.01341 -0.01341,-0.01341 -0.02681,0 -0.09384,-0.01341 -0.09384,-0.01341 z"
         id="path6469"
         style="fill:#916f6f" />
      <path
         d="m 107.0077,35.79283 c -0.67031,0.05362 -0.76415,0.05362 -1.78302,0.147468 -0.69712,0.06703 -0.93843,0.06703 -1.71599,0.06703 -0.53625,0 -0.96525,0 -1.0725,0.17428 -0.17428,0.241312 -0.0804,0.589873 0.17428,0.737341 0.20109,0.10725 0.48262,0.134062 1.287,0.134062 0.52284,0 0.84459,-0.02681 1.32721,-0.06703 0.34856,-0.04022 0.63009,-0.06703 0.63009,-0.06703 0.10725,0 -0.36197,0.67031 -0.6569,1.260183 -0.91162,1.796431 -1.68918,5.054138 -1.68918,5.925541 0,0.884809 0.50943,1.072496 1.0859,1.072496 0.84459,-0.120656 0.6435,-0.683716 0.6435,-1.246777 -0.17428,-2.895739 0.71052,-5.630604 2.46674,-7.292973 0.0402,-0.06703 0.067,-0.107249 0.067,-0.28153 0,-0.442405 -0.0134,-0.56306 -0.76416,-0.56306 z"
         id="path6471"
         style="fill:#916f6f" />
    </g>
    <path
       style="font-variation-settings:normal;opacity:1;vector-effect:none;fill:#acacac;fill-opacity:1;stroke:#dbdbdb;stroke-width:0.767623;stroke-linecap:butt;stroke-linejoin:miter;stroke-miterlimit:4;stroke-dasharray:none;stroke-dashoffset:0;stroke-opacity:1;-inkscape-stroke:none;stop-color:black;stop-opacity:1"
       id="path4492"
       d="m 6.7243634,28.260988 c 0.5679297,-0.147833 1.1918637,-0.209954 1.7972204,-0.283211 2.0742642,-0.224447 4.7075832,1.126389 6.2536482,-0.56053 3.06632,-0.220784 6.149661,-0.342722 9.23441,-0.431415 3.576075,-0.08473 6.807485,2.13849 10.386191,2.118334 3.863674,-0.02992 8.073085,-2.309854 11.936835,-2.282124 4.176636,0.03175 8.342334,0.206532 12.508527,0.365405 22.421752,0.83329 44.404875,2.004862 66.479255,1.159089 0.67331,-0.0078 1.34737,-0.07636 2.02122,-0.06597 0.22865,0.01033 0.45814,0.0023 0.68673,-0.0038 2.74267,-0.09858 2.5035,-2.359524 -0.23917,-2.260943 v 0 c -0.17287,0.0096 -0.34358,0.01996 -0.51834,0.01122 -0.74906,0.0163 -1.49402,0.06957 -2.24086,0.105359 -22.32403,-1.311471 -44.259746,-0.04973 -65.9689,-0.953449 -4.223441,-0.153224 -8.446125,-0.341646 -12.678902,-0.376566 -3.893606,-0.03693 -7.787791,-0.04666 -11.681651,-0.01479 -3.617698,0.0293 -7.236013,0.05687 -10.852011,0.129076 -3.172717,0.07691 -6.341818,0.211917 -9.499505,0.408657 -2.168578,0.136224 -4.330206,0.299073 -6.4889237,0.481117 -0.8741706,0.07855 -1.7482727,0.171501 -2.5872423,0.339337 -2.565858,0.598265 -1.1143896,2.713453 1.4514684,2.115188 z" />
  </g>
  <metadata
     id="metadata64">
    <rdf:RDF>
      <cc:Work
         rdf:about="">
        <dc:date>2022</dc:date>
        <dc:creator>
          <cc:Agent>
            <dc:title>YSTM</dc:title>
          </cc:Agent>
        </dc:creator>
        <dc:rights>
          <cc:Agent>
            <dc:title>FREE</dc:title>
          </cc:Agent>
        </dc:rights>
        <dc:publisher>
          <cc:Agent>
            <dc:title>YSTM</dc:title>
          </cc:Agent>
        </dc:publisher>
        <dc:subject>
          <rdf:Bag>
            <rdf:li>YSTM</rdf:li>
          </rdf:Bag>
        </dc:subject>
        <dc:title>Контакты</dc:title>
      </cc:Work>
    </rdf:RDF>
  </metadata>
</svg>
