<?xml version="1.0" standalone="no"?>
<!DOCTYPE svg PUBLIC "-//W3C//DTD SVG 20010904//EN"
 "https://www.w3.org/TR/2001/REC-SVG-20010904/DTD/svg10.dtd">
<svg version="1.0" xmlns="https://www.w3.org/2000/svg"
 width="512.000000pt" height="512.000000pt" viewBox="0 0 512.000000 512.000000"
 preserveAspectRatio="xMidYMid meet">
<metadata>
Created by potrace 1.11, written by Peter Selinger 2001-2013
</metadata>
<g transform="translate(0.000000,512.000000) scale(0.100000,-0.100000)"
fill="#000000" stroke="none">
<path d="M833 5105 c-370 -67 -663 -327 -788 -699 -45 -135 -45 -150 -45
-1846 0 -1696 0 -1711 45 -1846 57 -169 133 -293 254 -415 160 -159 341 -251
560 -284 143 -22 3259 -22 3402 0 371 56 685 317 806 670 55 161 53 104 53
1875 0 1771 2 1714 -53 1875 -100 291 -341 532 -632 632 -161 55 -102 53
-1884 52 -1304 -1 -1661 -4 -1718 -14z m1889 -412 c46 -20 48 -29 7 -37 -25
-5 -30 -10 -27 -28 3 -21 9 -23 66 -26 34 -2 62 -7 62 -12 0 -6 0 -13 0 -17 0
-5 -28 -10 -62 -13 l-63 -5 -3 -70 c-2 -43 2 -79 10 -94 10 -19 10 -25 1 -28
-22 -8 -14 -67 15 -114 41 -63 138 -149 234 -207 46 -27 178 -97 295 -156 253
-128 398 -221 511 -330 139 -134 224 -269 287 -459 64 -196 68 -239 73 -782 5
-668 -9 -835 -82 -959 -74 -126 -245 -171 -625 -164 l-174 3 166 49 c192 57
235 78 259 126 37 74 42 175 42 800 1 624 0 643 -41 775 -23 73 -79 182 -128
245 -70 91 -170 179 -360 320 -300 222 -407 342 -485 542 l-27 70 -21 -68
c-51 -165 -154 -277 -441 -476 -285 -199 -378 -277 -487 -411 -104 -129 -165
-254 -200 -417 -17 -76 -19 -130 -18 -500 1 -411 9 -569 39 -710 51 -244 162
-357 395 -405 118 -25 258 -35 553 -41 319 -7 332 -10 367 -67 47 -77 9 -196
-89 -273 -53 -42 -240 -143 -403 -217 l-75 -34 26 61 c58 143 9 368 -96 437
-24 16 -49 19 -178 19 -205 0 -431 17 -542 39 -253 52 -353 164 -399 444 -20
124 -37 975 -24 1182 19 297 80 497 203 660 124 166 258 253 662 432 310 138
473 239 605 379 98 103 110 123 110 186 0 30 -5 59 -12 66 -9 9 -9 17 1 35 7
13 11 43 9 68 l-3 44 -58 5 c-31 3 -57 8 -57 13 0 4 0 11 0 17 0 5 26 10 58
12 50 3 57 6 60 25 3 17 -3 24 -22 29 -33 8 -33 15 2 36 35 21 38 21 84 1z
m106 -1220 c38 -33 125 -294 241 -723 274 -1018 361 -1303 416 -1360 l26 -27
-190 -51 c-104 -29 -203 -52 -221 -52 -45 0 -85 32 -114 93 -13 28 -57 161
-96 293 -40 133 -76 248 -81 255 -7 11 -18 4 -47 -31 -270 -325 -442 -482
-574 -526 -133 -44 -396 33 -466 136 -22 32 -23 41 -17 120 13 179 51 304 137
455 28 50 171 272 318 495 146 223 279 426 294 451 l27 47 -31 77 c-47 118
-100 185 -165 209 -19 7 3 17 158 71 235 82 346 101 385 68z"/>
<path d="M2464 2768 c-148 -176 -234 -305 -305 -453 -74 -156 -93 -240 -93
-425 l-1 -155 33 -67 c36 -74 65 -100 130 -117 45 -13 131 -3 175 20 113 59
232 234 321 470 l36 97 -61 193 c-133 425 -160 509 -167 509 -4 0 -35 -33 -68
-72z"/>
</g>
</svg>
