<?xml version="1.0" standalone="no"?>
<!DOCTYPE svg PUBLIC "-//W3C//DTD SVG 20010904//EN"
 "https://www.w3.org/TR/2001/REC-SVG-20010904/DTD/svg10.dtd">
<svg version="1.0" xmlns="https://www.w3.org/2000/svg"
 width="512.000000pt" height="512.000000pt" viewBox="0 0 512.000000 512.000000"
 preserveAspectRatio="xMidYMid meet">
<metadata>
Created by potrace 1.11, written by Peter Selinger 2001-2013
</metadata>
<g transform="translate(0.000000,512.000000) scale(0.100000,-0.100000)"
fill="#000000" stroke="none">
<path d="M366 5104 c-185 -45 -330 -203 -356 -389 -13 -95 -13 -4215 0 -4310
29 -201 193 -365 395 -395 95 -13 4213 -13 4310 0 141 20 277 115 344 240 65
121 61 -26 61 2310 0 1860 -2 2133 -15 2189 -42 178 -178 314 -356 356 -94 22
-4291 21 -4383 -1z m2220 -775 l-11 -30 -8 25 c-6 17 -4 30 5 40 19 20 28 0
14 -35z m289 31 c-3 -5 0 -7 8 -4 8 3 18 0 22 -6 5 -8 11 -8 21 1 8 6 14 7 14
2 0 -5 9 -9 20 -10 11 -1 20 3 20 9 0 6 3 8 7 5 3 -4 -2 -16 -13 -27 -10 -10
-25 -26 -32 -35 -19 -22 -32 -19 -74 18 -43 37 -45 44 -20 50 29 8 33 7 27 -3z
m-345 -58 c0 -21 -2 -22 -15 -8 -8 8 -15 27 -15 43 1 27 1 27 15 9 8 -11 15
-31 15 -44z m896 43 c-11 -8 -25 -15 -30 -15 -6 1 0 7 14 15 32 19 40 18 16 0z
m-756 -35 c0 -32 -27 -23 -32 9 -4 26 -2 29 14 20 10 -5 18 -19 18 -29z m589
18 c13 -5 21 -11 18 -14 -3 -3 -25 4 -49 15 -40 20 -22 19 31 -1z m-955 1 c4
6 12 11 17 11 6 0 7 -6 3 -12 -6 -10 -4 -10 8 0 22 18 48 -9 44 -46 -2 -15 -4
-33 -5 -41 -1 -17 -43 -7 -88 21 -34 20 -44 48 -18 48 8 0 15 8 15 18 0 13 2
14 9 3 6 -9 11 -10 15 -2z m586 -87 c3 -3 -3 -2 -13 1 -25 9 -105 70 -111 84
-4 10 108 -66 124 -85z m419 37 c-38 -30 -129 -81 -129 -72 1 7 139 92 150 92
3 0 -7 -9 -21 -20z m-94 1 c-3 -5 -12 -10 -18 -10 -7 0 -6 4 3 10 19 12 23 12
15 0z m-583 -56 c-6 -34 -31 -38 -44 -8 -11 23 -9 28 12 44 23 17 26 17 31 3
3 -9 4 -27 1 -39z m173 2 c37 -32 38 -35 15 -32 -47 5 -103 46 -94 70 7 19 22
12 79 -38z m305 -2 c0 -40 -16 -77 -31 -69 -21 14 -1 105 23 105 5 0 8 -16 8
-36z m210 -7 c-9 -10 -50 0 -50 12 0 4 10 13 23 18 17 8 23 7 28 -6 4 -9 3
-20 -1 -24z m-1124 -15 c12 -10 25 -28 28 -40 7 -20 4 -22 -33 -22 -25 0 -42
5 -42 13 -1 6 -3 29 -4 49 -2 40 5 40 51 0z m-154 3 c-17 -14 -33 -25 -37 -25
-9 0 48 49 58 50 5 0 -5 -11 -21 -25z m1223 -11 c30 -19 31 -34 7 -55 -17 -15
-21 -13 -55 17 -32 30 -34 35 -19 43 24 15 39 13 67 -5z m-1185 -31 c0 -8 -13
-13 -30 -13 -36 0 -37 6 -8 30 23 18 37 12 38 -17z m400 22 c11 -13 10 -14 -4
-9 -9 3 -16 10 -16 15 0 13 6 11 20 -6z m249 1 c48 -25 55 -41 30 -65 -28 -26
-50 -27 -78 -3 -19 15 -20 20 -9 50 14 36 18 38 57 18z m-369 -42 c0 -4 -6 -4
-14 -1 -8 3 -17 1 -19 -6 -3 -7 -4 -2 -4 10 1 17 4 20 19 12 10 -5 18 -12 18
-15z m1254 -15 c-3 -5 2 -9 10 -9 9 0 16 -5 16 -11 0 -8 5 -7 16 1 12 11 15
11 12 0 -2 -7 7 -18 18 -25 36 -18 55 -38 47 -46 -4 -4 -31 -10 -60 -14 -45
-5 -55 -3 -73 15 -12 12 -19 28 -16 35 3 8 1 17 -4 20 -6 4 -10 14 -10 24 0
13 8 19 25 19 13 0 22 -4 19 -9z m-394 -19 c6 -11 8 -20 6 -20 -3 0 -10 9 -16
20 -6 11 -8 20 -6 20 3 0 10 -9 16 -20z m-1146 -18 c3 -5 -8 -6 -25 -4 -16 2
-29 6 -29 8 0 8 49 4 54 -4z m796 -32 c0 -5 -4 -10 -9 -10 -6 0 -13 5 -16 10
-3 6 1 10 9 10 9 0 16 -4 16 -10z m633 -36 c-3 -8 -14 -14 -24 -14 -22 0 -24
6 -7 24 16 17 39 9 31 -10z m-1550 9 c-7 -2 -21 -2 -30 0 -10 3 -4 5 12 5 17
0 24 -2 18 -5z m562 -3 c3 -5 1 -10 -4 -10 -6 0 -11 5 -11 10 0 6 2 10 4 10 3
0 8 -4 11 -10z m451 -3 c4 -4 -7 -5 -25 -3 -17 2 -34 6 -37 9 -3 2 8 4 25 3
16 -1 33 -5 37 -9z m214 3 c0 -5 -4 -10 -10 -10 -5 0 -10 5 -10 10 0 6 5 10
10 10 6 0 10 -4 10 -10z m230 -10 c0 -11 -7 -20 -15 -20 -8 0 -15 9 -15 20 0
11 7 20 15 20 8 0 15 -9 15 -20z m-570 -10 c0 -5 -4 -10 -9 -10 -6 0 -13 5
-16 10 -3 6 1 10 9 10 9 0 16 -4 16 -10z m-635 -10 c3 -6 -1 -7 -9 -4 -18 7
-21 14 -7 14 6 0 13 -4 16 -10z m695 -16 c0 -2 -7 -4 -15 -4 -8 0 -15 4 -15
10 0 5 7 7 15 4 8 -4 15 -8 15 -10z m825 -4 c-3 -5 -13 -10 -21 -10 -8 0 -14
5 -14 10 0 6 9 10 21 10 11 0 17 -4 14 -10z m-1524 -10 c5 0 9 -4 9 -10 0 -14
-13 -12 -36 6 -17 14 -17 15 -1 10 10 -3 23 -6 28 -6z m764 -10 c3 -5 -1 -10
-9 -10 -8 0 -18 5 -21 10 -3 6 1 10 9 10 8 0 18 -4 21 -10z m605 -34 c17 -62
11 -81 -26 -83 -49 -2 -55 7 -45 60 8 46 8 47 -18 47 -20 0 -23 2 -11 10 8 5
31 10 51 10 34 0 37 -2 49 -44z m309 13 c11 -17 11 -21 1 -12 -11 10 -18 9
-34 -6 -26 -23 -86 -34 -106 -20 -12 9 -12 10 3 5 13 -4 32 6 60 29 46 39 54
40 76 4z m-2363 6 c-11 -8 -25 -15 -30 -15 -6 1 0 7 14 15 32 19 40 18 16 0z
m794 5 c0 -5 -4 -10 -10 -10 -5 0 -10 5 -10 10 0 6 5 10 10 10 6 0 10 -4 10
-10z m1120 0 c0 -5 -5 -10 -11 -10 -5 0 -7 5 -4 10 3 6 8 10 11 10 2 0 4 -4 4
-10z m370 6 c0 -2 -8 -10 -17 -17 -16 -13 -17 -12 -4 4 13 16 21 21 21 13z
m-2220 -68 c0 -5 -10 -8 -21 -8 -16 0 -20 5 -16 20 3 11 1 20 -4 20 -5 0 -9
-9 -9 -19 0 -19 -14 -22 -37 -8 -8 5 -13 4 -13 -2 0 -6 -4 -11 -10 -11 -21 0
3 26 38 41 35 15 38 15 54 -5 10 -12 18 -24 18 -28z m1730 42 c-13 -8 -12 -10
3 -10 9 0 17 -4 17 -9 0 -5 3 -16 6 -25 12 -31 -24 -16 -45 19 l-20 35 27 0
c21 0 24 -2 12 -10z m167 -12 c-3 -8 -6 -5 -6 6 -1 11 2 17 5 13 3 -3 4 -12 1
-19z m-407 -12 c0 -2 -7 -7 -16 -10 -8 -3 -12 -2 -9 4 6 10 25 14 25 6z m897
-28 c7 -1 10 -5 7 -10 -4 -5 3 -12 15 -15 23 -6 29 -29 9 -35 -14 -5 -4 -38
12 -38 5 0 10 7 10 15 0 8 5 15 10 15 6 0 10 -4 10 -9 0 -5 8 -11 18 -13 9 -3
-10 -10 -43 -17 -33 -7 -77 -19 -97 -26 -42 -15 -48 -12 -49 24 0 26 -1 25
-16 -6 -18 -36 -49 -55 -40 -26 2 10 8 27 13 38 7 20 7 20 -14 1 -30 -26 -39
-13 -14 18 10 14 22 22 26 18 4 -3 4 1 1 10 -5 13 -12 15 -32 7 -34 -13 -50
-12 -36 2 17 17 157 59 178 53 11 -3 25 -6 32 -6z m-774 -75 c-7 -2 -19 -2
-25 0 -7 3 -2 5 12 5 14 0 19 -2 13 -5z m64 1 c-3 -3 -12 -4 -19 -1 -8 3 -5 6
6 6 11 1 17 -2 13 -5z m499 -83 c-10 -15 -67 -24 -78 -13 -7 7 0 17 22 31 28
17 35 18 47 5 8 -7 12 -18 9 -23z m-901 9 c-19 -3 -26 -8 -18 -13 13 -8 7 -37
-9 -37 -5 0 -6 5 -3 10 3 6 -1 10 -9 10 -19 0 -21 16 -3 23 7 3 4 6 -6 6 -10
1 -16 5 -13 9 2 4 24 6 48 3 40 -4 41 -5 13 -11z m-1345 0 c8 -5 11 -10 5 -10
-5 0 -17 5 -25 10 -8 5 -10 10 -5 10 6 0 17 -5 25 -10z m-97 -7 c-7 -2 -19 -2
-25 0 -7 3 -2 5 12 5 14 0 19 -2 13 -5z m2657 -5 c-14 -5 -34 -11 -45 -13 -11
-2 -36 -6 -55 -10 -30 -5 -32 -5 -15 6 24 15 70 27 110 27 l30 1 -25 -11z
m-2605 -26 c-3 -3 -11 0 -18 7 -9 10 -8 11 6 5 10 -3 15 -9 12 -12z m-252 1
c-7 -2 -19 -2 -25 0 -7 3 -2 5 12 5 14 0 19 -2 13 -5z m2657 -7 c0 -2 -7 -7
-16 -10 -8 -3 -12 -2 -9 4 6 10 25 14 25 6z m-2374 -18 c4 -6 0 -16 -9 -23
-10 -7 -17 -17 -17 -24 0 -15 -11 -14 -39 5 -29 21 -15 37 31 36 23 -1 28 2
18 8 -9 6 -10 10 -3 10 6 0 15 -5 19 -12z m119 -7 c-3 -6 -11 -11 -16 -11 -5
0 -4 6 3 14 14 16 24 13 13 -3z m890 4 c38 -12 38 -13 10 -13 -16 0 -48 5 -70
13 -38 12 -38 13 -10 13 17 0 48 -5 70 -13z m1672 9 c-3 -3 -12 -4 -19 -1 -8
3 -5 6 6 6 11 1 17 -2 13 -5z m-2295 -26 c-7 -7 -12 -8 -12 -2 0 14 12 26 19
19 2 -3 -1 -11 -7 -17z m1088 -8 c0 -16 -4 -30 -10 -30 -5 0 -10 14 -10 30 0
17 5 30 10 30 6 0 10 -13 10 -30z m350 20 c-8 -5 -22 -9 -30 -9 -10 0 -8 3 5
9 27 12 43 12 25 0z m770 -9 c-23 -12 -211 -54 -217 -47 -3 3 5 7 18 10 13 3
58 14 99 25 84 21 125 26 100 12z m119 -40 c22 -22 37 -42 34 -45 -4 -3 -1 -6
6 -6 7 0 10 -4 7 -8 -2 -4 -1 -14 4 -22 6 -9 0 -24 -17 -44 -31 -38 -59 -50
-67 -30 -9 22 -20 194 -12 194 3 0 24 -18 45 -39z m-2479 -11 c0 -28 -31 -42
-54 -24 -17 12 -17 14 -3 20 10 3 17 15 17 25 0 17 3 18 20 9 11 -6 20 -19 20
-30z m1140 36 c0 -3 -4 -8 -10 -11 -5 -3 -10 -1 -10 4 0 6 5 11 10 11 6 0 10
-2 10 -4z m1235 -64 c-7 -78 -21 -161 -28 -169 -9 -8 -37 16 -37 32 0 7 14 43
31 80 16 37 28 69 25 72 -5 6 -36 -21 -36 -31 0 -4 -12 -25 -26 -48 -19 -30
-28 -37 -34 -27 -6 9 -8 3 -8 -17 1 -33 -28 -90 -49 -98 -16 -7 -16 3 -1 132
l12 102 41 10 c22 6 54 14 70 19 17 4 33 6 38 4 4 -3 5 -30 2 -61z m-889 36
c14 -17 15 -19 2 -10 -10 8 -27 11 -40 7 -22 -6 -22 -6 -4 9 24 19 19 20 42
-6z m-1976 -25 c0 -42 -7 -40 -20 6 -7 24 -6 31 6 31 10 0 14 -12 14 -37z
m326 25 c5 -7 3 -8 -5 -4 -7 5 -22 0 -34 -11 l-22 -18 19 23 c21 25 32 27 42
10z m885 -21 c-5 -5 -22 -2 -40 7 -42 22 -39 25 9 13 23 -7 36 -15 31 -20z
m353 7 c9 -3 16 -11 16 -17 0 -8 -3 -8 -11 0 -6 6 -18 9 -27 6 -10 -4 -13 -2
-8 5 8 14 9 14 30 6z m1116 -94 c-10 -47 -21 -102 -24 -122 -8 -47 -28 -49
-73 -8 -40 36 -43 49 -7 25 26 -16 26 -16 19 7 -4 12 -18 34 -31 49 -30 32
-30 36 6 79 30 34 109 74 122 62 3 -4 -2 -45 -12 -92z m-2506 81 c3 -4 -1 -17
-9 -27 -17 -23 -19 -34 -4 -34 14 0 39 -26 39 -40 0 -6 4 -9 9 -6 4 3 17 -4
27 -15 16 -17 16 -22 4 -29 -23 -14 -30 -12 -40 13 -6 16 -9 17 -9 5 -1 -20
-20 -33 -31 -22 -15 15 -27 139 -16 151 13 14 23 16 30 4z m136 -1 c0 -5 -5
-10 -11 -10 -5 0 -7 5 -4 10 3 6 8 10 11 10 2 0 4 -4 4 -10z m872 0 c6 0 6 -6
-2 -15 -14 -17 -36 -20 -45 -5 -9 15 5 32 22 26 8 -3 19 -6 25 -6z m-312 -46
c0 -8 -4 -12 -10 -9 -5 3 -10 13 -10 21 0 8 5 12 10 9 6 -3 10 -13 10 -21z
m-950 -3 c0 -11 4 -22 9 -26 6 -3 9 -13 9 -23 -1 -9 2 -33 5 -53 8 -39 -10
-66 -37 -56 -8 3 -17 3 -20 0 -3 -4 -22 -8 -41 -10 -41 -4 -57 18 -32 45 9 9
16 22 17 27 1 6 7 9 12 7 6 -2 8 4 5 13 -4 8 -2 15 4 15 6 0 7 5 4 10 -3 6 -1
10 4 10 6 0 11 9 11 21 0 11 5 17 10 14 6 -3 10 1 10 9 0 9 7 16 15 16 8 0 15
-9 15 -19z m356 -31 c13 0 24 -5 24 -11 0 -5 -4 -7 -10 -4 -5 3 -10 1 -10 -4
0 -6 5 -11 10 -11 6 0 10 -5 10 -12 0 -6 -13 1 -30 17 -16 16 -29 38 -29 49 2
19 2 19 6 -1 3 -16 11 -23 29 -23z m134 -1 c0 -6 -4 -7 -10 -4 -5 3 -10 11
-10 16 0 6 5 7 10 4 6 -3 10 -11 10 -16z m1393 -6 c-7 -2 -19 -2 -25 0 -7 3
-2 5 12 5 14 0 19 -2 13 -5z m-327 -18 c4 -8 9 -13 14 -10 10 6 80 -68 80 -86
0 -14 -102 -119 -115 -119 -14 0 -135 93 -146 113 -6 9 -2 22 9 35 9 11 22 28
27 37 10 16 76 44 108 45 10 0 20 -7 23 -15z m109 2 c13 -11 16 -21 11 -42 -8
-32 -10 -31 -31 18 -16 39 -11 46 20 24z m118 -84 c-3 -32 -11 -67 -16 -78 -6
-11 -10 -29 -8 -39 1 -10 -3 -30 -10 -43 -17 -31 -3 -44 53 -48 56 -3 291 -35
297 -40 7 -8 -26 -49 -98 -123 -68 -69 -83 -92 -61 -92 6 0 10 4 10 10 0 5 12
16 28 24 15 9 47 34 72 56 24 22 47 40 50 40 3 0 3 -29 2 -65 -3 -52 -8 -69
-23 -78 -10 -6 -19 -18 -19 -25 0 -7 -12 -24 -26 -37 -31 -29 -29 -30 20 -10
l37 16 -3 -65 c-1 -36 1 -68 5 -72 4 -4 7 6 8 22 0 16 6 47 12 68 l12 40 36
-50 36 -50 -29 -37 c-34 -42 -27 -48 16 -12 l29 23 19 -23 c32 -42 19 -56 -42
-47 -32 5 -34 4 -21 -11 10 -13 23 -15 52 -11 32 5 39 4 39 -10 0 -9 -4 -16
-9 -16 -4 0 -22 -13 -39 -30 -27 -25 -41 -30 -84 -31 -29 -1 -60 -3 -68 -4 -8
-1 -23 -3 -32 -4 -29 -2 -21 -18 10 -20 82 -5 86 -9 51 -49 -32 -37 -16 -36
42 3 51 35 57 36 117 31 53 -5 67 -10 84 -32 12 -14 30 -35 41 -45 11 -10 18
-21 15 -24 -3 -3 -34 -14 -70 -23 -63 -18 -119 -54 -104 -69 4 -4 43 -8 86 -8
44 0 82 -4 86 -7 3 -4 -4 -18 -17 -31 -75 -77 -110 -117 -102 -117 5 0 18 8
29 18 10 9 41 34 67 55 l47 38 0 -58 c0 -89 -9 -97 -111 -91 -64 4 -93 10
-122 28 -21 12 -40 20 -43 18 -7 -8 63 -78 78 -78 7 0 22 -8 33 -16 19 -15 18
-16 -15 -8 -19 4 -45 8 -57 8 -12 1 -25 4 -29 9 -4 4 -11 7 -16 7 -11 0 -3
-31 17 -75 29 -60 75 -187 75 -204 0 -9 6 -23 13 -30 10 -10 7 -16 -13 -31
-24 -19 -24 -20 -4 -20 28 0 35 -9 23 -31 -7 -15 -21 -19 -59 -19 -75 0 -80 4
-63 52 21 60 9 70 -18 16 -26 -53 -54 -66 -43 -20 4 15 11 35 15 44 5 9 9 27
8 40 0 22 -1 22 -9 3 -11 -27 -58 -70 -67 -61 -4 3 3 30 16 59 34 79 35 84 7
55 -29 -33 -33 -34 -39 -10 -3 10 -5 6 -6 -10 0 -16 -5 -28 -11 -28 -11 0 -14
20 -11 58 2 27 -15 29 -31 2 -25 -39 -31 -20 -23 73 4 50 4 90 2 87 -3 -3 -13
-48 -22 -100 -18 -104 -29 -127 -44 -89 -9 23 -10 23 -10 -8 -1 -37 -28 -70
-44 -54 -17 17 -26 13 -20 -10 7 -26 -11 -39 -55 -39 l-33 0 5 88 5 87 -18
-70 -18 -70 -31 60 c-33 64 -41 63 -19 -1 30 -86 30 -94 0 -95 l-28 -1 33 -14
c24 -10 32 -19 28 -30 -3 -9 -6 -22 -6 -30 0 -23 -27 -16 -65 17 -29 26 -35
38 -35 72 0 38 -1 40 -15 21 -15 -18 -17 -17 -55 26 -21 24 -49 71 -62 105
l-23 60 -5 -35 -5 -35 -17 24 c-10 14 -21 22 -24 18 -4 -4 2 -17 14 -30 25
-27 64 -115 56 -128 -9 -15 -34 -10 -34 6 0 19 -20 19 -46 1 -19 -14 -22 -12
-39 22 l-18 37 -8 -29 c-5 -17 -6 -32 -4 -35 3 -2 5 2 5 10 0 11 2 11 10 -1
17 -27 11 -40 -32 -68 -24 -15 -61 -46 -84 -70 -22 -23 -46 -42 -52 -42 -7 0
-12 -4 -12 -10 0 -5 -4 -10 -8 -10 -18 0 -4 57 27 111 27 48 37 58 66 63 22 5
35 13 35 23 0 9 -6 13 -15 9 -21 -8 -19 21 2 33 10 5 15 12 11 16 -3 4 -24 -5
-46 -19 -21 -13 -59 -30 -83 -36 -57 -16 -229 -38 -234 -31 -6 10 -54 274 -56
306 -1 17 6 50 15 74 l17 45 -26 -24 c-30 -28 -36 -24 -38 24 -1 20 -4 36 -7
36 -3 -1 -32 -35 -65 -76 -33 -42 -66 -80 -73 -86 -16 -14 -89 19 -95 42 -6
21 24 114 44 136 9 11 19 36 22 58 3 21 8 41 11 43 3 3 27 0 53 -6 26 -7 51
-12 55 -12 4 0 21 -4 38 -9 17 -5 32 -5 35 1 4 5 0 9 -8 9 -8 0 -41 12 -73 26
-86 38 -93 40 -161 59 -35 10 -63 21 -63 25 0 3 -16 7 -35 8 -42 3 -85 18 -85
30 0 15 60 53 78 50 11 -2 18 -15 20 -36 4 -35 22 -45 22 -11 0 12 8 28 17 34
17 13 17 14 0 32 -21 24 -22 43 -2 43 8 0 15 5 15 10 0 6 -7 10 -15 10 -20 0
-20 40 0 86 8 20 12 40 9 45 -7 12 18 11 74 -3 34 -8 64 -26 105 -64 32 -30
68 -59 80 -66 24 -13 27 -17 -32 59 -18 23 -30 47 -26 53 9 14 -15 42 -31 36
-12 -5 -47 24 -93 76 l-24 28 24 8 c35 14 48 5 74 -52 l24 -51 -6 53 c-7 61
-4 61 87 3 87 -55 210 -120 214 -112 3 4 -20 25 -50 46 -31 22 -63 46 -72 52
-97 72 -141 102 -160 112 -13 7 -21 15 -18 18 5 5 147 -46 156 -56 12 -14 70
-51 70 -45 0 4 -12 23 -27 43 -27 34 -34 77 -20 114 5 14 19 17 72 17 91 0 83
19 -15 36 -56 10 -55 9 -56 65 -2 44 -1 48 5 19 l7 -35 7 38 c7 34 11 37 42
37 28 0 35 -4 35 -20 0 -22 19 -27 37 -9 8 8 18 6 37 -6 35 -23 45 -11 17 19
-24 25 -15 43 15 32 10 -4 14 -1 11 6 -2 7 -12 12 -21 10 -25 -5 -45 15 -39
39 4 15 8 17 19 8 17 -14 17 -9 4 25 -7 19 -6 27 4 33 7 4 13 19 12 33 -2 38
26 35 76 -7 58 -49 91 -99 84 -127 -3 -11 -21 -48 -41 -80 -19 -32 -34 -60
-32 -62 2 -2 20 17 41 41 20 25 41 43 45 41 4 -3 13 -28 21 -56 21 -76 27 -69
17 22 -7 66 -5 84 8 104 9 14 20 22 26 19 5 -4 26 -38 45 -77 41 -82 40 -91
-33 -158 -23 -23 -43 -44 -43 -48 0 -4 -16 -25 -35 -47 -19 -22 -35 -44 -35
-49 0 -11 30 15 128 112 40 40 78 70 83 67 5 -4 9 3 9 13 0 36 45 42 81 11 33
-29 140 -119 178 -151 12 -10 24 -18 27 -18 15 0 -9 28 -110 130 l-109 109 34
40 c42 48 53 53 84 39 19 -8 25 -19 25 -42 1 -28 2 -29 14 -13 7 9 18 17 23
17 6 0 8 11 5 25 -2 14 1 32 8 40 7 9 10 18 7 22 -7 6 20 63 30 63 4 0 15 -7
25 -17 17 -15 18 -15 18 4 0 11 -7 26 -15 33 -25 21 -17 57 20 95 20 19 40 35
45 35 5 0 6 -26 3 -57z m77 53 c0 -3 -4 -8 -10 -11 -5 -3 -10 -1 -10 4 0 6 5
11 10 11 6 0 10 -2 10 -4z m1307 -13 c-4 -3 1 -12 11 -20 11 -10 12 -12 2 -8
-8 4 -6 -1 4 -9 15 -12 16 -16 5 -16 -11 0 -12 -2 0 -9 20 -13 -2 -23 -58 -27
-27 -2 -52 -4 -57 -5 -28 -5 -25 5 13 39 38 34 72 60 82 61 2 1 1 -2 -2 -6z
m-1144 -29 c20 -4 37 -11 37 -16 0 -6 -19 -35 -43 -66 -53 -70 -65 -97 -38
-82 11 5 21 14 23 18 10 28 102 120 114 115 19 -7 18 -82 -2 -111 -8 -12 -13
-31 -9 -42 6 -18 1 -19 -70 -16 -49 2 -80 7 -85 15 -4 8 -10 9 -13 4 -4 -6
-32 -8 -64 -6 -32 3 -66 4 -76 4 -14 0 -17 7 -15 27 2 19 9 27 23 27 14 0 20
7 21 25 2 43 32 90 58 90 21 0 24 -5 28 -46 2 -25 0 -51 -4 -58 -5 -9 1 -20
17 -30 l25 -16 0 54 c0 69 10 116 24 116 6 0 28 -3 49 -6z m-729 -33 c-2 -3
-12 3 -22 13 -16 17 -16 18 5 5 12 -7 20 -15 17 -18z m-974 4 c0 -10 -45 -23
-55 -17 -5 3 1 9 15 13 33 9 40 10 40 4z m180 1 c0 -11 -19 -15 -25 -6 -3 5 1
10 9 10 9 0 16 -2 16 -4z m790 -32 c0 -8 -4 -14 -10 -14 -5 0 -10 2 -10 4 0 2
-3 12 -6 20 -5 12 -2 15 10 10 9 -3 16 -12 16 -20z m-140 -19 c0 -8 -4 -15 -8
-15 -13 0 -32 23 -32 37 0 11 5 11 20 3 11 -6 20 -17 20 -25z m-1020 5 c-19
-13 -30 -13 -30 0 0 6 10 10 23 10 18 0 19 -2 7 -10z m1230 0 c0 -5 -4 -10
-10 -10 -5 0 -10 5 -10 10 0 6 5 10 10 10 6 0 10 -4 10 -10z m1532 -3 c-6 -7
-26 -14 -44 -15 l-33 -2 25 15 c33 19 67 20 52 2z m-1476 -33 c21 -15 52 -36
67 -47 l29 -20 -38 -38 c-21 -22 -43 -39 -50 -39 -15 0 -101 76 -115 102 -9
16 -7 24 8 37 17 16 39 28 54 30 3 1 24 -11 45 -25z m-1276 6 c0 -5 -7 -7 -15
-4 -8 4 -15 8 -15 10 0 2 7 4 15 4 8 0 15 -4 15 -10z m2350 0 c0 -5 -2 -10 -4
-10 -3 0 -8 5 -11 10 -3 6 -1 10 4 10 6 0 11 -4 11 -10z m-2610 -10 c0 -5 -12
-10 -27 -9 l-28 1 25 8 c14 4 26 8 28 9 1 1 2 -3 2 -9z m53 3 c-7 -2 -19 -2
-25 0 -7 3 -2 5 12 5 14 0 19 -2 13 -5z m993 -8 c11 -29 -2 -37 -19 -11 -15
23 -16 26 -2 26 9 0 18 -7 21 -15z m703 -27 c-13 -55 -17 -60 -40 -48 -25 14
-24 22 7 59 35 42 44 39 33 -11z m1556 21 c-34 -8 -151 -11 -144 -5 2 3 28 6
57 7 28 1 57 6 63 10 6 3 21 4 33 1 19 -6 18 -7 -9 -13z m-2810 -9 c-3 -5 -12
-10 -18 -10 -7 0 -6 4 3 10 19 12 23 12 15 0z m273 -15 c-12 -27 -23 -31 -34
-13 -4 6 1 17 11 25 28 20 36 16 23 -12z m585 12 c3 -8 1 -20 -4 -28 -5 -9 -9
-9 -9 -2 0 6 -3 18 -6 27 -3 9 -2 16 4 16 5 0 12 -6 15 -13z m1237 -8 c0 -6
-4 -7 -10 -4 -5 3 -10 11 -10 16 0 6 5 7 10 4 6 -3 10 -11 10 -16z m-2564 -8
c-9 -8 -22 -11 -32 -7 -22 8 -6 22 26 22 17 0 18 -2 6 -15z m544 10 c0 -6 -4
-13 -10 -16 -5 -3 -10 1 -10 9 0 9 5 16 10 16 6 0 10 -4 10 -9z m2780 -8 c0
-7 -4 -13 -10 -13 -5 0 -6 -9 -1 -21 4 -12 2 -45 -4 -73 l-12 -51 -39 1 c-21
1 -49 2 -61 3 -14 1 -28 12 -37 30 -14 26 -14 30 8 50 13 12 29 20 37 18 8 -2
11 -2 7 0 -18 10 -6 23 21 23 16 0 31 6 35 15 3 8 1 15 -4 15 -6 0 -10 4 -10
9 0 5 16 9 35 8 22 -1 35 -6 35 -14z m-3260 4 c0 -2 -10 -12 -21 -23 -22 -19
-22 -19 -8 4 12 19 29 30 29 19z m795 -7 c-3 -5 3 -10 14 -10 16 0 21 -6 21
-25 0 -21 -5 -25 -30 -25 -20 0 -30 5 -30 15 0 8 5 15 11 15 6 0 9 6 6 14 -3
8 -3 17 0 20 10 10 15 7 8 -4z m-929 -25 c15 -14 23 -25 17 -25 -5 0 -20 11
-33 25 -13 14 -21 25 -17 25 3 0 18 -11 33 -25z m554 5 c0 -10 -5 -22 -10 -25
-6 -4 -8 -15 -5 -25 7 -22 -7 -33 -29 -24 -21 8 -21 44 1 44 15 0 15 1 0 18
-20 22 -17 27 17 30 20 1 26 -3 26 -18z m521 -7 c13 -16 12 -17 -3 -4 -17 13
-22 21 -14 21 2 0 10 -8 17 -17z m1789 -17 c0 -37 -17 -40 -29 -6 -9 27 -8 30
10 30 14 0 19 -7 19 -24z m370 14 c-19 -13 -30 -13 -30 0 0 6 10 10 23 10 18
0 19 -2 7 -10z m-2577 -12 c6 -19 -26 -77 -42 -78 -10 0 -12 8 -7 32 9 48 38
75 49 46z m127 3 c0 -12 -20 -25 -27 -18 -7 7 6 27 18 27 5 0 9 -4 9 -9z
m-800 -10 c0 -17 -18 -21 -24 -6 -3 9 0 15 9 15 8 0 15 -4 15 -9z m3154 -27
c8 -26 -26 -59 -50 -50 -20 8 -12 54 14 74 18 13 27 8 36 -24z m-387 7 c1 -14
-3 -18 -13 -14 -17 6 -18 20 -1 26 6 3 12 6 12 6 1 1 1 -8 2 -18z m697 -5 c-1
-9 5 -16 13 -16 8 0 13 -8 12 -17 -1 -10 3 -29 8 -43 9 -22 8 -25 -14 -28 -38
-5 -56 16 -47 57 4 20 6 44 6 54 0 10 5 16 11 14 7 -2 11 -12 11 -21z m-3339
-46 c12 -19 -12 -10 -31 11 -19 22 -19 22 3 10 12 -6 25 -16 28 -21z m111 -7
c-10 -10 -19 5 -10 18 6 11 8 11 12 0 2 -7 1 -15 -2 -18z m107 -4 c-7 -24 -23
-35 -23 -15 0 8 -3 21 -6 29 -4 12 0 14 14 10 14 -3 18 -11 15 -24z m-232 -16
c6 -17 4 -31 -7 -48 -18 -27 -51 -33 -60 -11 -3 8 -15 16 -26 20 -19 4 -20 7
-7 22 11 15 12 16 0 10 -9 -6 -12 -4 -9 5 2 8 17 15 31 17 15 2 27 7 27 12 0
18 42 -4 51 -27z m1446 17 c9 -13 9 -21 2 -26 -13 -7 -15 -5 -23 24 -9 27 5
29 21 2z m-577 -31 c0 -41 0 -41 -32 -35 -17 3 -34 8 -37 11 -6 6 49 65 61 65
4 0 8 -19 8 -41z m1783 -5 c-5 -18 -26 -9 -35 15 -8 23 -8 23 14 9 13 -9 22
-19 21 -24z m-2519 -10 c3 -8 2 -12 -4 -9 -6 3 -10 10 -10 16 0 14 7 11 14 -7z
m2124 8 c10 -7 10 -15 2 -37 -6 -15 -8 -37 -5 -49 5 -19 5 -19 -5 -3 -16 26
-30 78 -24 88 6 11 15 11 32 1z m122 -13 c0 -8 -32 -29 -44 -29 -8 0 -8 35 0
42 7 8 44 -3 44 -13z m477 5 c-3 -3 -12 -4 -19 -1 -8 3 -5 6 6 6 11 1 17 -2
13 -5z m67 -2 c6 -10 -13 -34 -51 -60 -30 -21 -31 -21 -26 -2 3 10 11 25 19
31 8 6 14 18 14 25 0 15 35 20 44 6z m-2870 -27 c-4 -8 -8 -15 -10 -15 -2 0
-4 7 -4 15 0 8 4 15 10 15 5 0 7 -7 4 -15z m2776 -20 c-7 -8 -17 -12 -22 -9
-5 3 -1 15 9 26 20 22 32 6 13 -17z m-330 4 c0 -11 -4 -17 -10 -14 -5 3 -10
13 -10 21 0 8 5 14 10 14 6 0 10 -9 10 -21z m765 2 c-5 -9 -65 -1 -65 8 0 4
16 5 35 3 19 -2 33 -7 30 -11z m-955 -10 c0 -12 -20 -25 -27 -18 -7 7 6 27 18
27 5 0 9 -4 9 -9z m689 -11 c24 0 23 -30 -2 -57 -20 -23 -57 -31 -57 -14 0 5
5 22 12 38 6 15 12 31 13 36 2 4 3 10 5 15 1 4 4 1 7 -5 2 -7 13 -13 22 -13z
m344 13 c-7 -2 -21 -2 -30 0 -10 3 -4 5 12 5 17 0 24 -2 18 -5z m-1114 -60 c1
-7 -3 -13 -9 -13 -5 0 -10 17 -9 38 1 33 2 34 9 12 4 -14 8 -31 9 -37z m1031
31 c0 -17 -22 -18 -38 -2 -19 19 -14 26 13 20 14 -2 25 -11 25 -18z m-707 -14
c3 -11 1 -18 -4 -14 -5 3 -9 12 -9 20 0 20 7 17 13 -6z m-2673 0 c0 -5 -6 -10
-14 -10 -8 0 -18 5 -21 10 -3 6 3 10 14 10 12 0 21 -4 21 -10z m2477 -7 c-9
-9 -20 -13 -24 -9 -4 4 -1 11 7 16 25 16 35 11 17 -7z m563 -3 c-11 -7 -12
-10 -2 -10 7 0 10 -5 6 -11 -4 -8 -9 -7 -15 2 -8 14 9 44 20 34 3 -3 -1 -10
-9 -15z m-2040 -21 l0 -32 -20 26 c-11 14 -20 28 -20 31 0 3 9 6 20 6 16 0 20
-7 20 -31z m2290 -10 c0 -9 -4 -8 -15 1 -8 7 -15 19 -15 27 0 12 2 12 15 -1 8
-8 15 -20 15 -27z m-2342 -9 l33 -39 -65 32 c-36 18 -65 35 -65 40 -1 4 14 7
32 7 25 0 39 -9 65 -40z m1492 30 c0 -5 -5 -10 -11 -10 -5 0 -7 5 -4 10 3 6 8
10 11 10 2 0 4 -4 4 -10z m-2447 -7 c-7 -2 -19 -2 -25 0 -7 3 -2 5 12 5 14 0
19 -2 13 -5z m2555 -12 c2 -7 -5 -15 -17 -18 -23 -6 -28 -19 -8 -26 8 -3 0
-18 -23 -41 l-36 -36 -37 35 c-20 19 -37 39 -37 44 0 11 25 21 55 21 12 0 28
6 34 14 7 8 21 12 33 8 15 -4 19 -2 13 8 -5 8 -3 11 5 8 8 -2 16 -10 18 -17z
m627 -3 c-1 -18 -9 -24 -36 -26 l-34 -4 24 26 c30 32 48 33 46 4z m387 -7 c-3
-17 0 -21 10 -16 10 6 11 5 1 -6 -15 -16 -17 -33 -3 -24 6 3 11 0 11 -7 1 -7
2 -20 3 -28 1 -8 -3 -21 -8 -27 -5 -8 -4 -13 3 -13 7 0 10 -4 7 -9 -3 -5 2
-12 12 -16 16 -6 16 -7 0 -16 -10 -5 -15 -16 -12 -24 4 -8 9 -13 13 -11 4 3 7
-11 6 -29 0 -45 -37 -85 -63 -69 -28 18 -45 83 -33 124 10 35 10 35 -8 13 -18
-21 -19 -21 -35 -4 -22 25 -20 58 5 72 16 8 18 13 9 19 -10 6 -8 11 9 21 11 8
21 19 21 26 0 7 5 13 10 13 6 0 9 3 9 8 -4 22 3 33 19 30 11 -2 16 -11 14 -27z
m-132 -1 c0 -5 -5 -10 -11 -10 -5 0 -7 5 -4 10 3 6 8 10 11 10 2 0 4 -4 4 -10z
m30 -20 c0 -5 -4 -10 -10 -10 -5 0 -10 -6 -10 -14 0 -7 -7 -19 -15 -26 -13
-10 -15 -9 -15 10 0 13 8 29 18 36 21 16 32 17 32 4z m-3450 -32 c10 -6 0 -8
-30 -5 -44 5 -44 4 -16 -8 16 -7 31 -20 32 -29 2 -13 -6 -16 -39 -15 -56 1
-82 11 -82 29 0 10 10 15 28 15 15 -1 27 3 27 7 0 4 -7 8 -15 8 -8 0 -15 5
-15 11 0 12 86 2 110 -13z m765 12 c4 -6 -1 -7 -11 -3 -13 5 -16 2 -12 -8 4
-10 -1 -15 -13 -15 -17 0 -17 2 -2 18 18 20 29 23 38 8z m1593 -17 c24 -64 23
-69 -3 -40 -14 16 -23 33 -20 38 4 5 -1 9 -10 9 -9 0 -13 5 -10 10 12 19 33
10 43 -17z m237 -19 c0 -11 -6 -18 -14 -16 -17 4 -45 -19 -32 -27 5 -3 12 -27
16 -53 9 -63 -10 -64 -59 -5 l-35 42 32 34 c50 51 92 63 92 25z m-2508 10 c-3
-3 -12 -4 -19 -1 -8 3 -5 6 6 6 11 1 17 -2 13 -5z m2963 -24 c-12 -8 -11 -10
8 -10 27 0 28 -11 2 -35 -20 -18 -21 -18 -34 1 -13 16 -12 21 1 37 9 9 21 17
27 17 6 0 4 -5 -4 -10z m-632 -51 c-15 -9 -14 -11 -22 26 l-6 30 20 -24 c16
-19 18 -26 8 -32z m529 45 c-3 -3 -12 -4 -19 -1 -8 3 -5 6 6 6 11 1 17 -2 13
-5z m403 -50 c0 -8 -8 -14 -18 -14 -25 0 -56 35 -48 55 5 15 9 14 36 -5 16
-12 30 -28 30 -36z m-120 -14 c3 -3 17 -11 33 -17 15 -7 27 -18 27 -24 0 -12
-65 24 -95 54 -20 19 -20 19 5 6 14 -8 27 -16 30 -19z m-3365 10 c-3 -5 -10
-10 -16 -10 -5 0 -9 5 -9 10 0 6 7 10 16 10 8 0 12 -4 9 -10z m121 -2 l42 0
17 -70 c9 -38 14 -75 11 -83 -3 -9 -21 -13 -57 -12 l-52 1 -29 63 c-17 35 -32
63 -34 63 -2 0 -1 -27 3 -60 6 -61 -2 -73 -33 -52 -13 8 -24 93 -12 86 5 -3 8
3 8 13 0 10 7 29 16 41 13 19 21 22 47 16 18 -4 51 -7 73 -6z m3019 -8 c3 -5
2 -10 -4 -10 -5 0 -13 5 -16 10 -3 6 -2 10 4 10 5 0 13 -4 16 -10z m-2500 -10
c-3 -5 -10 -10 -16 -10 -5 0 -9 5 -9 10 0 6 7 10 16 10 8 0 12 -4 9 -10z
m1987 -27 c44 -43 46 -49 17 -56 -15 -4 -29 2 -45 20 -26 28 -30 43 -13 43 5
0 7 5 3 11 -4 8 -9 7 -15 -2 -4 -7 -11 -10 -16 -6 -6 7 13 26 27 27 2 0 21
-17 42 -37z m652 31 c-6 -3 -9 -16 -6 -29 3 -19 0 -25 -13 -25 -10 0 -24 8
-31 18 -11 14 -9 19 9 29 12 7 29 12 37 12 8 0 10 -3 4 -5z m-3018 -20 c-3 -9
-6 -30 -7 -47 l-1 -32 -13 30 c-21 44 -19 65 6 65 15 0 19 -4 15 -16z m2474 6
c0 -5 -5 -10 -11 -10 -5 0 -7 5 -4 10 3 6 8 10 11 10 2 0 4 -4 4 -10z m-2113
-47 c-3 -3 -11 -2 -17 2 -8 5 -7 11 2 22 12 15 13 14 16 -1 2 -10 1 -20 -1
-23z m2708 27 c3 -5 1 -10 -4 -10 -6 0 -11 5 -11 10 0 6 2 10 4 10 3 0 8 -4
11 -10z m-2876 -13 c6 -8 8 -17 4 -20 -7 -8 -33 11 -33 24 0 13 16 11 29 -4z
m2520 -9 c0 -16 -2 -18 -6 -8 -3 8 -11 18 -17 22 -7 5 -4 8 7 8 11 0 17 -7 16
-22z m-2690 -42 c-9 -8 -10 -7 -5 7 3 10 7 26 7 35 1 9 4 6 6 -7 3 -13 -1 -28
-8 -35z m2586 34 c-10 -11 -13 -20 -7 -20 7 0 12 -4 12 -10 0 -16 -17 -11 -24
7 -5 11 -1 22 10 30 26 19 30 16 9 -7z m200 10 c3 -5 1 -10 -6 -10 -6 0 -18
-8 -25 -17 -12 -17 -13 -17 -14 3 0 11 3 24 7 27 10 10 31 8 38 -3z m-2551
-50 c-6 -6 -10 -2 -11 12 -2 16 1 18 10 9 7 -7 8 -14 1 -21z m2580 15 c-4 -8
-13 -15 -22 -15 -13 0 -12 3 4 15 24 18 25 18 18 0z m324 -5 c-7 -11 -21 -20
-32 -20 -11 0 -16 3 -13 6 5 6 45 29 55 33 1 1 -3 -8 -10 -19z m122 -10 c9 -6
10 -10 3 -10 -6 0 -13 -10 -15 -22 -2 -15 -10 -23 -23 -23 -23 0 -32 30 -15
50 14 17 29 19 50 5z m-2810 -40 c0 -22 -20 -26 -38 -8 -19 19 -14 28 13 28
18 0 25 -5 25 -20z m2841 11 c-7 -5 -11 -13 -7 -19 7 -11 -12 -28 -21 -19 -10
11 9 47 25 47 14 0 14 -2 3 -9z m167 -25 c0 -19 -3 -22 -13 -13 -7 7 -10 18
-8 24 8 21 21 14 21 -11z m-936 -21 c4 -19 1 -25 -13 -25 -13 0 -19 7 -19 23
0 44 24 46 32 2z m824 -4 c-11 -18 -34 -1 -29 20 5 18 7 19 21 6 8 -8 11 -20
8 -26z m-931 19 c-3 -5 1 -10 9 -10 18 0 21 -16 5 -25 -13 -8 -15 -6 -23 23
-5 14 -3 22 4 22 6 0 8 -4 5 -10z m289 1 c3 -5 -3 -11 -14 -14 -11 -3 -19 -11
-18 -17 2 -7 -3 -15 -9 -17 -9 -3 -13 6 -13 26 0 26 4 31 24 31 14 0 27 -4 30
-9z m103 3 c-3 -3 -12 -4 -19 -1 -8 3 -5 6 6 6 11 1 17 -2 13 -5z m173 -4 c0
-5 -2 -10 -4 -10 -3 0 -8 5 -11 10 -3 6 -1 10 4 10 6 0 11 -4 11 -10z m110 0
c0 -5 -9 -10 -20 -10 -11 0 -20 5 -20 10 0 6 9 10 20 10 11 0 20 -4 20 -10z
m-764 -15 c-8 -8 -18 -15 -22 -15 -3 0 -1 7 6 15 7 8 17 15 22 15 5 0 3 -7 -6
-15z m597 -2 c-7 -2 -19 -2 -25 0 -7 3 -2 5 12 5 14 0 19 -2 13 -5z m277 -8
c26 -15 19 -19 -29 -17 -28 2 -35 7 -26 21 8 15 25 13 55 -4z m-840 -9 c0 -2
-7 -6 -15 -10 -8 -3 -15 -1 -15 4 0 6 7 10 15 10 8 0 15 -2 15 -4z m-2613 -12
c-11 -11 -57 -13 -63 -3 -3 5 12 9 32 9 21 0 34 -3 31 -6z m531 -20 c0 -31
-20 -46 -55 -42 -37 4 -38 33 0 34 35 1 49 14 16 15 -21 0 -22 1 -4 8 32 13
43 9 43 -15z m155 19 c10 -10 -26 -32 -64 -38 -26 -5 -31 -3 -22 6 6 6 9 18 6
25 -4 10 5 14 34 14 22 0 43 -3 46 -7z m2834 1 c-3 -3 -12 -4 -19 -1 -8 3 -5
6 6 6 11 1 17 -2 13 -5z m-78 -55 c-9 -17 -13 -19 -20 -8 -14 22 -11 29 11 29
18 0 19 -3 9 -21z m71 14 c0 -10 -42 -53 -52 -53 -12 0 1 43 16 52 14 10 36
10 36 1z m85 -3 c-4 -6 7 -8 29 -5 20 2 35 1 34 -3 0 -4 4 -18 10 -32 6 -14
11 -21 11 -16 1 12 31 -14 31 -28 0 -7 -3 -7 -8 2 -6 9 -23 6 -71 -13 -35 -15
-66 -24 -68 -21 -3 3 -12 -1 -20 -9 -13 -13 -43 -21 -43 -11 0 2 6 16 14 31 8
15 12 33 10 40 -3 7 11 26 31 44 36 31 51 40 40 21z m115 -16 c0 -8 -4 -12
-10 -9 -5 3 -10 10 -10 16 0 5 5 9 10 9 6 0 10 -7 10 -16z m-3593 0 c-3 -3
-12 -4 -19 -1 -8 3 -5 6 6 6 11 1 17 -2 13 -5z m2546 -1 c-7 -2 -19 -2 -25 0
-7 3 -2 5 12 5 14 0 19 -2 13 -5z m484 -29 c-3 -3 -12 -4 -19 -1 -8 3 -5 6 6
6 11 1 17 -2 13 -5z m202 -5 c17 -6 31 -14 31 -19 0 -12 -48 1 -61 16 -14 17
-11 17 30 3z m-3179 -14 c10 -13 9 -15 -9 -15 -12 0 -21 6 -21 15 0 8 4 15 9
15 5 0 14 -7 21 -15z m3162 -28 c23 -8 41 -44 27 -52 -15 -10 -56 32 -62 63
-4 22 -3 24 6 11 7 -8 20 -18 29 -22z m-2834 -2 c-8 -8 -48 8 -42 16 3 5 14 4
25 -2 12 -6 19 -12 17 -14z m2527 15 c-11 -5 -27 -9 -35 -9 -9 0 -8 4 5 9 11
5 27 9 35 9 9 0 8 -4 -5 -9z m359 -26 c7 -19 2 -18 -19 6 -16 17 -16 20 -3 15
9 -4 19 -13 22 -21z m-2954 6 c-12 -8 -12 -10 -1 -10 8 0 20 -8 28 -17 14 -17
14 -17 9 0 -4 12 0 17 14 17 23 0 24 -4 9 -31 -17 -32 -50 -62 -59 -52 -4 4
-12 29 -18 56 -9 44 -8 47 12 47 17 0 18 -2 6 -10z m-471 -4 c-2 -2 -17 -6
-34 -10 -22 -5 -26 -4 -15 4 14 9 59 15 49 6z m3745 -28 c-2 -18 -5 -71 -8
-117 -3 -46 -11 -90 -17 -97 -9 -11 -9 -14 0 -14 9 0 8 -6 -1 -22 -7 -13 -13
-30 -14 -38 0 -8 -4 -23 -8 -32 -5 -10 -6 -25 -2 -33 3 -8 0 -15 -6 -15 -6 0
-8 -3 -5 -7 4 -3 2 -12 -4 -20 -9 -10 -8 -13 2 -13 9 0 10 -3 3 -8 -14 -10
-27 -42 -27 -69 0 -12 -3 -20 -8 -18 -4 3 -10 1 -14 -5 -3 -5 0 -10 7 -10 9 0
9 -3 -2 -10 -8 -5 -11 -10 -5 -10 5 0 4 -5 -2 -11 -6 -6 -9 -18 -6 -27 4 -9 2
-13 -4 -9 -5 3 -10 0 -10 -8 0 -8 5 -15 11 -15 6 0 0 -9 -14 -20 -14 -10 -25
-27 -25 -37 0 -15 -9 -18 -50 -18 -66 -1 -95 26 -60 55 17 14 21 35 4 24 -7
-4 -7 1 1 16 6 12 9 24 6 27 -3 3 10 21 29 38 59 56 61 132 1 78 -17 -15 -23
-19 -14 -8 16 17 16 21 2 36 -13 15 -14 26 -3 81 11 58 28 88 52 88 5 0 3 -8
-4 -17 -12 -15 -12 -16 4 -10 10 4 22 7 27 7 5 0 15 13 23 29 12 24 12 32 1
54 -17 31 1 43 31 21 10 -8 22 -14 27 -14 15 0 8 32 -12 57 -11 14 -20 22 -20
18 0 -5 -3 -6 -6 -2 -8 8 55 62 72 62 7 0 16 4 21 9 5 5 2 6 -7 2 -8 -4 -7 -1
3 7 10 8 17 19 16 23 -3 18 1 34 9 34 5 0 7 -15 6 -32z m-484 18 c0 -1 -5 -17
-11 -35 -9 -27 -16 -31 -45 -31 -38 0 -45 18 -15 40 11 7 18 17 15 22 -3 4 9
8 25 8 17 0 31 -2 31 -4z m-2570 -16 c0 -13 -11 -13 -30 0 -12 8 -11 10 8 10
12 0 22 -4 22 -10z m2490 6 c0 -3 -4 -8 -10 -11 -5 -3 -10 -1 -10 4 0 6 5 11
10 11 6 0 10 -2 10 -4z m-2550 -25 c16 -30 12 -39 -20 -56 -47 -24 -49 -20
-25 39 17 40 29 45 45 17z m2372 10 c4 0 5 -8 1 -17 -7 -19 -47 -14 -51 7 -3
15 10 17 50 10z m326 -18 l19 -28 -34 -35 c-33 -33 -35 -34 -29 -10 3 14 6 42
6 63 0 44 12 47 38 10z m-2519 2 c35 -9 67 -18 71 -20 11 -7 -27 -85 -41 -85
-6 0 -8 9 -4 20 7 22 5 23 -19 14 -8 -3 -12 -12 -10 -19 6 -16 -20 -32 -65
-40 -41 -7 -39 3 4 21 44 18 38 36 -8 23 -44 -12 -47 -12 -47 11 0 27 30 60
55 60 20 1 20 1 1 15 -25 19 -17 18 63 0z m2831 -14 c-31 -27 -60 -31 -60 -10
0 5 1 9 3 9 1 0 20 7 42 15 54 19 55 19 15 -14z m-3640 3 c-36 -7 -81 -13
-100 -12 -24 0 -12 4 35 13 94 17 147 16 65 -1z m382 -23 c-6 -3 -12 -17 -15
-31 -3 -19 -5 -16 -6 12 -1 30 2 36 15 31 9 -3 11 -8 6 -12z m-362 -21 c-8 -5
-24 -10 -35 -10 -17 0 -17 2 -5 10 8 5 24 10 35 10 17 0 17 -2 5 -10z m116
-22 c18 -21 18 -21 0 -15 -15 6 -17 4 -12 -18 4 -14 2 -25 -3 -25 -5 0 -11 18
-13 40 -4 46 1 49 28 18z m2679 12 c17 -7 14 -9 -13 -9 -20 -1 -31 3 -27 9 7
12 13 12 40 0z m439 -8 c-2 -27 -5 -30 -35 -41 -18 -6 -33 -11 -34 -11 -6 0
-15 51 -11 58 8 13 81 8 80 -6z m-211 -3 c-9 -9 -8 -15 3 -26 8 -8 14 -22 14
-30 0 -14 -3 -14 -20 2 -28 25 -26 65 4 65 6 0 6 -4 -1 -11z m456 -11 l14 -23
-24 20 c-13 11 -26 21 -28 22 -2 2 2 3 10 3 8 0 20 -10 28 -22z m-3416 -33
c11 -53 1 -102 -23 -115 -11 -6 -20 -18 -20 -26 0 -11 -6 -14 -16 -10 -9 3
-20 6 -26 6 -6 0 -5 7 3 16 8 9 9 18 3 22 -5 4 -9 16 -9 27 0 11 -3 25 -8 32
-4 6 -3 14 3 18 5 3 10 15 10 25 0 26 28 52 53 48 16 -2 23 -14 30 -43z m2747
-5 c0 -38 -25 -58 -39 -32 -6 11 -8 22 -4 25 3 4 0 13 -6 21 -10 11 -9 15 6
18 30 7 43 -3 43 -32z m581 21 c-11 -7 -9 -10 10 -13 13 -2 23 -9 21 -17 -1
-7 6 -15 17 -18 18 -5 15 -11 -27 -55 -26 -28 -58 -56 -72 -63 -38 -19 -90
-28 -90 -16 0 6 9 11 20 11 11 0 20 5 20 11 0 5 5 7 10 4 6 -3 10 -1 10 4 0 6
-18 11 -39 11 -52 0 -71 8 -71 31 0 10 2 19 4 19 2 0 12 3 22 7 12 4 15 3 10
-5 -4 -7 -4 -12 -1 -12 3 0 11 14 17 31 6 19 15 28 24 25 8 -3 11 0 8 9 -4 9
10 18 43 28 58 18 85 21 64 8z m189 -11 c-8 -5 -19 -10 -25 -10 -5 0 -3 5 5
10 8 5 20 10 25 10 6 0 3 -5 -5 -10z m-566 -62 c-10 -16 -34 -8 -34 11 0 11
-3 28 -6 38 -3 11 4 7 20 -11 13 -17 23 -33 20 -38z m188 16 c-13 -9 -26 -13
-30 -9 -8 8 17 25 38 25 9 0 6 -6 -8 -16z m-2447 -11 c-4 -10 -10 -26 -12 -35
-7 -22 -23 -24 -23 -2 0 8 -4 12 -10 9 -5 -3 -10 3 -10 14 0 18 14 27 49 30 9
1 11 -5 6 -16z m-555 -11 c0 -24 -20 -49 -47 -57 -19 -5 -22 -3 -16 12 5 16
50 63 60 63 1 0 3 -8 3 -18z m450 -12 c0 -5 -7 -10 -16 -10 -8 0 -12 5 -9 10
3 6 10 10 16 10 5 0 9 -4 9 -10z m390 -29 c0 -30 -8 -49 -36 -83 -43 -51 -47
-53 -63 -34 -10 12 -3 28 35 85 26 39 51 71 55 71 5 0 9 -18 9 -39z m2085 29
c-3 -5 -1 -10 5 -10 7 0 10 -5 8 -11 -6 -19 -21 -14 -24 9 -2 12 1 22 7 22 5
0 7 -4 4 -10z m-267 -22 c3 -14 -3 -18 -27 -18 -34 0 -34 0 -25 25 8 21 48 16
52 -7z m589 -14 c-15 -13 -33 -24 -40 -24 -7 0 4 14 23 29 42 35 57 30 17 -5z
m-2789 -24 c19 -12 32 -28 32 -40 0 -32 -32 -24 -99 26 -8 6 9 34 21 34 7 0
28 -9 46 -20z m-402 -5 c-11 -8 -22 -12 -25 -9 -6 6 19 24 34 24 6 -1 1 -7 -9
-15z m3204 6 c0 -5 -7 -11 -15 -15 -15 -5 -20 5 -8 17 9 10 23 9 23 -2z m-771
-37 c1 -1 0 -7 -4 -13 -8 -14 -35 -14 -35 -1 0 6 -9 10 -20 10 -11 0 -20 5
-20 10 0 9 67 4 79 -6z m461 6 c0 -5 -4 -10 -10 -10 -5 0 -10 5 -10 10 0 6 5
10 10 10 6 0 10 -4 10 -10z m-280 -10 c0 -5 -10 -10 -22 -10 -19 0 -20 2 -8
10 19 13 30 13 30 0z m217 4 c-3 -3 -12 -4 -19 -1 -8 3 -5 6 6 6 11 1 17 -2
13 -5z m363 -33 c0 -11 -4 -31 -9 -44 -8 -21 -17 -25 -61 -28 -58 -4 -59 -4
-82 32 l-17 27 72 14 c98 20 97 21 97 -1z m-2627 -38 c4 -24 -7 -29 -37 -17
-18 7 -22 44 -5 44 5 0 7 5 4 11 -4 6 2 5 13 -2 11 -7 22 -23 25 -36z m1722
22 c28 -13 42 -24 32 -24 -25 -1 -11 -21 14 -21 11 0 18 4 15 9 -3 4 6 6 19 3
14 -2 28 -8 31 -13 3 -5 -3 -6 -13 -2 -16 6 -16 5 -4 -10 9 -11 11 -28 7 -52
-6 -29 -11 -35 -25 -30 -15 4 -17 1 -13 -20 5 -29 -12 -33 -46 -9 -20 14 -102
162 -102 185 0 15 32 9 85 -16z m242 13 c-2 -7 0 -21 5 -30 13 -27 -7 -22 -26
6 -12 18 -12 26 -3 29 21 9 29 7 24 -5z m83 -15 c0 -13 -3 -13 -15 -3 -8 7
-12 16 -9 21 8 13 24 1 24 -18z m130 7 c0 -5 -4 -10 -9 -10 -6 0 -13 5 -16 10
-3 6 1 10 9 10 9 0 16 -4 16 -10z m-2740 -4 c0 -2 -7 -7 -16 -10 -8 -3 -12 -2
-9 4 6 10 25 14 25 6z m-130 -32 c13 -14 11 -14 -25 0 -22 8 -49 17 -60 20
-11 3 0 3 25 0 25 -3 52 -12 60 -20z m927 -17 c1 -18 5 -47 9 -66 6 -32 6 -33
-15 -21 -29 15 -37 38 -23 61 7 10 12 31 12 46 0 36 14 20 17 -20z m2193 34
c0 -11 -31 -24 -39 -16 -3 3 1 10 9 15 19 12 30 12 30 1z m-3155 -36 l30 -13
-30 -2 c-16 -2 -40 -4 -52 -5 -26 -3 -29 5 -11 23 15 15 25 15 63 -3z m2920
-6 c-8 -12 -45 -12 -45 0 0 10 30 20 43 14 4 -3 5 -9 2 -14z m264 7 c9 -11 5
-15 -21 -19 -42 -6 -56 2 -33 20 24 17 40 17 54 -1z m-2362 -22 c-7 -7 -37 7
-37 17 0 6 9 5 21 -1 11 -7 19 -14 16 -16z m-682 6 c3 -6 -1 -7 -9 -4 -18 7
-21 14 -7 14 6 0 13 -4 16 -10z m70 -20 c3 -5 1 -10 -4 -10 -6 0 -11 5 -11 10
0 6 2 10 4 10 3 0 8 -4 11 -10z m505 -10 c-11 -21 -35 -18 -44 6 -4 10 3 14
25 14 26 0 29 -2 19 -20z m1890 -21 c0 -6 -4 -7 -10 -4 -5 3 -10 11 -10 16 0
6 5 7 10 4 6 -3 10 -11 10 -16z m724 -11 c-7 -38 -24 -67 -59 -102 -14 -14
-25 -29 -25 -34 0 -5 -14 -15 -31 -23 -29 -12 -33 -11 -50 10 -23 28 -24 41
-4 41 8 0 15 7 15 15 0 8 -9 15 -19 15 -14 0 -20 9 -23 38 -3 20 -5 37 -4 38
1 1 16 4 34 7 21 4 31 3 27 -3 -4 -6 15 -10 47 -10 45 1 50 2 33 12 -19 12
-19 12 5 19 53 15 60 12 54 -23z m-2549 13 c3 -5 1 -12 -5 -16 -5 -3 -10 1
-10 9 0 18 6 21 15 7z m2455 -1 c0 -5 -8 -10 -17 -10 -15 0 -16 2 -3 10 19 12
20 12 20 0z m-3215 -32 c7 -6 -7 -7 -40 -2 -77 11 -100 25 -30 18 33 -3 65
-10 70 -16z m943 -16 c16 -11 33 -80 22 -87 -5 -3 -15 4 -24 16 -9 13 -21 19
-30 16 -22 -9 -29 9 -22 49 7 35 10 36 54 6z m2126 -8 c4 -9 4 -19 2 -22 -10
-9 -36 8 -36 23 0 20 26 19 34 -1z m-2951 -1 c-7 -2 -19 -2 -25 0 -7 3 -2 5
12 5 14 0 19 -2 13 -5z m-153 -14 c0 -5 5 -7 10 -4 6 3 10 2 10 -3 0 -17 -13
-21 -26 -7 -16 16 -18 25 -4 25 6 0 10 -5 10 -11z m247 5 c-3 -3 -12 -4 -19
-1 -8 3 -5 6 6 6 11 1 17 -2 13 -5z m1917 -16 c16 -63 1 -108 -36 -108 -15 0
-18 8 -18 43 0 40 21 87 39 87 5 0 11 -10 15 -22z m-1954 -33 c0 -19 -11 -45
-19 -45 -3 0 -12 9 -19 21 -10 15 -10 24 -2 34 13 16 40 9 40 -10z m-104 -26
c-17 -25 -20 -19 -10 19 5 15 10 20 16 14 7 -7 5 -18 -6 -33z m261 11 c11 -16
9 -22 -14 -40 l-27 -21 -18 23 c-24 32 -23 56 5 60 30 5 40 1 54 -22z m2158
10 c3 -5 -1 -10 -10 -10 -9 0 -13 5 -10 10 3 6 8 10 10 10 2 0 7 -4 10 -10z
m510 0 c3 -5 1 -10 -4 -10 -6 0 -11 5 -11 10 0 6 2 10 4 10 3 0 8 -4 11 -10z
m95 -11 c0 -12 -37 -12 -44 0 -3 4 -3 11 0 14 8 7 44 -4 44 -14z m-2520 -19
c6 -11 8 -20 6 -20 -3 0 -10 9 -16 20 -6 11 -8 20 -6 20 3 0 10 -9 16 -20z
m-452 -14 c9 -20 7 -27 -7 -40 -10 -9 -25 -16 -34 -16 -20 0 -35 22 -19 28 7
2 12 8 12 13 0 11 22 38 31 39 3 0 11 -11 17 -24z m3162 4 c-6 -11 -17 -20
-26 -20 -12 0 -12 4 -4 20 6 11 17 20 26 20 12 0 12 -4 4 -20z m-2565 0 c3 -5
-1 -10 -9 -10 -9 0 -16 5 -16 10 0 6 4 10 9 10 6 0 13 -4 16 -10z m-705 -10
c0 -5 -5 -10 -11 -10 -5 0 -7 5 -4 10 3 6 8 10 11 10 2 0 4 -4 4 -10z m1260
-9 c-14 -27 -30 -36 -30 -17 0 8 8 20 18 25 23 14 24 14 12 -8z m334 -44 c24
-71 22 -84 -13 -79 -27 4 -29 8 -36 58 -8 65 -24 64 -19 -2 1 -26 -1 -43 -5
-38 -10 11 -34 84 -29 89 11 10 74 31 80 26 3 -3 13 -28 22 -54z m1192 36
c-10 -10 -19 5 -10 18 6 11 8 11 12 0 2 -7 1 -15 -2 -18z m44 17 c0 -5 -2 -10
-4 -10 -3 0 -8 5 -11 10 -3 6 -1 10 4 10 6 0 11 -4 11 -10z m-625 -19 c-3 -6
-11 -11 -17 -11 -6 0 -6 6 2 15 14 17 26 13 15 -4z m478 2 c-4 -10 -2 -14 5
-9 6 3 13 2 17 -4 4 -6 -4 -9 -19 -8 -29 3 -32 8 -14 26 16 16 19 15 11 -5z
m-2443 -20 c0 -2 -5 -13 -11 -24 -10 -20 -12 -20 -30 -3 -14 12 -16 21 -9 29
10 12 50 10 50 -2z m865 7 c-3 -5 -18 -9 -33 -9 l-27 1 30 8 c17 4 31 8 33 9
2 0 0 -3 -3 -9z m100 -22 c-10 -46 -19 -52 -41 -27 -12 14 -15 23 -8 26 6 2
20 10 30 18 26 20 26 19 19 -17z m1775 22 c8 -5 11 -12 7 -16 -4 -4 -2 -13 5
-21 20 -24 -1 -27 -27 -3 -39 36 -28 67 15 40z m-1510 -14 c0 -2 7 -19 15 -39
14 -33 13 -35 -4 -30 -19 5 -61 -12 -61 -25 0 -4 17 -8 37 -10 46 -3 49 -6 35
-37 -11 -24 -42 -35 -42 -15 0 6 -8 10 -19 10 -10 0 -21 9 -24 20 -3 13 -10
18 -21 14 -21 -8 -20 5 2 37 31 48 82 94 82 75z m1740 -16 c0 -5 -6 -10 -12
-13 -7 -2 -10 -8 -6 -12 5 -5 16 -1 26 8 21 19 48 22 57 7 3 -5 1 -10 -4 -10
-6 0 -11 -9 -11 -20 0 -30 17 -24 29 11 9 26 14 30 33 24 13 -4 30 -7 39 -7
23 1 43 -36 28 -54 -6 -7 -16 -11 -22 -7 -6 3 -7 1 -3 -6 5 -7 5 -23 2 -36 -5
-18 -11 -23 -23 -18 -12 5 -15 2 -10 -10 3 -9 -1 -23 -9 -32 -8 -8 -13 -19 -9
-24 3 -6 -4 -8 -16 -6 -16 3 -18 1 -10 -9 9 -10 8 -15 -4 -20 -8 -3 -15 -9
-14 -13 3 -20 -2 -34 -11 -28 -5 3 -10 -4 -10 -15 0 -16 -4 -20 -16 -16 -8 3
-12 2 -9 -4 3 -6 2 -10 -4 -10 -6 0 -8 -6 -5 -13 2 -7 -9 -20 -26 -30 -16 -10
-30 -25 -30 -33 0 -8 -10 -19 -22 -24 -13 -5 -17 -9 -10 -9 17 -1 15 -21 -3
-21 -8 0 -15 -5 -15 -11 0 -5 -5 -7 -12 -3 -8 5 -9 2 -5 -9 4 -11 1 -17 -9
-17 -8 0 -12 -4 -9 -10 3 -5 0 -10 -8 -10 -8 0 -17 -9 -20 -20 -3 -11 -13 -23
-24 -27 -10 -4 -25 -15 -34 -25 -15 -17 -17 -17 -28 5 -10 20 -11 19 -5 -10 4
-26 2 -32 -18 -38 -13 -4 -27 -13 -31 -19 -5 -6 -5 3 -2 20 5 26 1 37 -18 56
-32 32 -26 71 14 101 38 27 37 38 -3 26 -18 -5 -34 -9 -35 -9 -2 0 -3 10 -3
23 1 14 13 30 34 43 l34 22 11 -25 c6 -13 9 -28 6 -33 -3 -5 1 -12 8 -17 18
-10 58 -89 50 -97 -4 -3 4 -6 17 -6 21 0 22 1 8 18 -9 9 -21 34 -27 56 -9 35
-8 40 12 57 12 10 32 18 43 19 38 0 39 49 1 50 -4 0 -5 12 -2 28 4 22 4 23 -4
7 -5 -11 -7 -30 -4 -42 4 -17 -1 -25 -20 -32 -14 -5 -28 -14 -31 -19 -7 -11
-46 -4 -46 8 0 5 -3 15 -6 23 -3 8 2 21 10 30 15 14 14 16 -4 22 -12 4 -17 11
-13 18 4 7 8 19 10 27 1 8 6 16 10 17 4 2 19 10 33 18 14 8 46 24 73 36 47 23
61 39 32 39 -8 0 -15 7 -15 15 0 8 -5 14 -12 13 -7 -2 -12 13 -14 37 -2 22 -6
50 -9 62 -4 17 -2 21 9 17 11 -4 13 -14 9 -36 -6 -29 -5 -31 20 -24 25 6 32
-1 28 -26 -2 -14 17 -8 23 7 3 8 15 15 26 15 24 0 28 35 5 44 -18 6 -20 27 -4
43 11 11 49 6 49 -7z m-1256 -5 c8 -8 19 -15 25 -15 21 0 11 -28 -11 -34 -69
-18 -108 6 -73 44 22 24 38 25 59 5z m906 5 c0 -5 -4 -10 -9 -10 -6 0 -13 5
-16 10 -3 6 1 10 9 10 9 0 16 -4 16 -10z m-2465 -20 c-10 -11 -23 -20 -29 -20
-6 1 0 10 13 20 30 26 39 26 16 0z m-221 -6 c5 -14 4 -15 -9 -4 -17 14 -19 20
-6 20 5 0 12 -7 15 -16z m1553 -48 c-4 -10 -54 -12 -64 -2 -3 3 -2 17 1 31 l7
26 30 -22 c16 -11 28 -26 26 -33z m503 50 c0 -3 -4 -8 -10 -11 -5 -3 -10 -1
-10 4 0 6 5 11 10 11 6 0 10 -2 10 -4z m-1950 -11 c0 -2 -10 -10 -22 -16 -21
-11 -22 -11 -9 4 13 16 31 23 31 12z m852 -17 c22 -22 22 -23 4 -26 -11 -3
-26 4 -33 14 -28 38 -6 47 29 12z m1168 12 c-20 -13 -40 -13 -40 0 0 6 12 10
28 10 21 0 24 -2 12 -10z m375 0 c3 -5 2 -10 -4 -10 -5 0 -13 5 -16 10 -3 6
-2 10 4 10 5 0 13 -4 16 -10z m144 -32 c0 -31 -1 -31 -10 -10 -5 13 -7 28 -3
33 10 16 14 9 13 -23z m155 -10 c32 -32 53 -78 36 -78 -5 0 -15 -2 -23 -6 -17
-6 -42 47 -33 71 3 8 1 15 -3 15 -5 0 -11 -5 -13 -11 -2 -6 -9 0 -16 15 -17
38 10 35 52 -6z m36 12 c0 -5 -2 -10 -4 -10 -3 0 -8 5 -11 10 -3 6 -1 10 4 10
6 0 11 -4 11 -10z m-1935 -20 c14 -15 15 -20 4 -20 -15 1 -49 23 -49 34 0 13
28 5 45 -14z m1685 -20 c0 -3 -14 -7 -31 -8 -18 -1 -28 2 -24 7 3 6 13 7 23 4
15 -6 15 -5 3 11 -10 12 -17 14 -25 6 -5 -5 -15 -10 -20 -10 -6 0 -3 7 8 15
16 12 21 12 42 -3 13 -9 24 -19 24 -22z m97 -7 c-3 -10 -5 -2 -5 17 0 19 2 27
5 18 2 -10 2 -26 0 -35z m73 -36 c0 -13 -6 -18 -22 -15 -25 3 -34 33 -23 77
l7 26 18 -35 c11 -19 19 -43 20 -53z m-2725 63 c-3 -5 -12 -10 -18 -10 -7 0
-6 4 3 10 19 12 23 12 15 0z m1795 6 c0 -3 -4 -8 -10 -11 -5 -3 -10 -1 -10 4
0 6 5 11 10 11 6 0 10 -2 10 -4z m-1152 -38 c-6 -18 -28 -21 -28 -4 0 9 7 16
16 16 9 0 14 -5 12 -12z m682 -3 c0 -8 -4 -15 -10 -15 -5 0 -7 7 -4 15 4 8 8
15 10 15 2 0 4 -7 4 -15z m60 0 c-7 -8 -16 -15 -21 -15 -5 0 -9 7 -9 15 0 9 9
15 21 15 18 0 19 -2 9 -15z m737 -11 c-3 -3 -12 -4 -19 -1 -8 3 -5 6 6 6 11 1
17 -2 13 -5z m-2227 -34 c-14 -11 -29 -20 -35 -20 -5 0 1 9 15 20 14 11 30 20
35 20 6 0 -1 -9 -15 -20z m54 -20 c-9 -16 -20 -30 -25 -30 -6 0 -7 5 -3 12 5
8 2 9 -10 5 -13 -5 -17 -2 -14 10 2 10 16 21 33 24 17 4 31 7 32 8 1 0 -5 -12
-13 -29z m1736 20 c0 -5 -2 -10 -4 -10 -3 0 -8 5 -11 10 -3 6 -1 10 4 10 6 0
11 -4 11 -10z m870 6 c0 -11 -19 -15 -25 -6 -3 5 1 10 9 10 9 0 16 -2 16 -4z
m-2080 -10 c0 -2 -7 -6 -15 -10 -8 -3 -15 -1 -15 4 0 6 7 10 15 10 8 0 15 -2
15 -4z m415 -6 c3 -5 1 -10 -4 -10 -6 0 -11 5 -11 10 0 6 2 10 4 10 3 0 8 -4
11 -10z m1355 -4 c0 -3 -4 -8 -10 -11 -5 -3 -10 -1 -10 4 0 6 5 11 10 11 6 0
10 -2 10 -4z m-603 -24 c10 -17 8 -18 -13 -14 -13 2 -24 11 -24 18 0 20 23 17
37 -4z m-1157 -2 c0 -5 -4 -10 -10 -10 -5 0 -10 5 -10 10 0 6 5 10 10 10 6 0
10 -4 10 -10z m195 0 c15 -6 8 -9 -27 -8 -26 1 -45 5 -42 10 7 10 43 9 69 -2z
m765 -26 c0 -8 -5 -12 -10 -9 -6 4 -8 11 -5 16 9 14 15 11 15 -7z m615 6 c3
-6 -1 -7 -9 -4 -18 7 -21 14 -7 14 6 0 13 -4 16 -10z m-1395 -9 c0 -19 -22
-23 -38 -7 -15 15 -14 16 11 16 15 0 27 -4 27 -9z m1920 5 c0 -3 -4 -8 -10
-11 -5 -3 -10 -1 -10 4 0 6 5 11 10 11 6 0 10 -2 10 -4z m-1842 -21 c1 -6 -9
-11 -23 -13 -23 -3 -33 7 -20 20 8 8 40 3 43 -7z m-640 -12 c-2 -13 3 -17 16
-15 18 3 18 2 3 -13 -13 -12 -21 -14 -37 -5 -23 13 -27 30 -5 30 8 0 15 5 15
10 0 6 2 10 5 10 3 0 5 -8 3 -17z m1089 -21 c-17 -16 -17 -16 -13 8 2 14 5 27
5 30 1 2 6 -1 13 -8 10 -9 8 -16 -5 -30z m-816 1 c13 -16 12 -17 -3 -4 -17 13
-22 21 -14 21 2 0 10 -8 17 -17z m639 -9 c0 0 -11 -11 -25 -24 l-25 -23 0 24
c0 19 5 24 25 24 14 0 25 0 25 -1z m-240 -24 c-20 -13 -33 -13 -25 0 3 6 14
10 23 10 15 0 15 -2 2 -10z m1444 -20 c-6 -6 -10 -3 -10 10 0 13 4 16 10 10 7
-7 7 -13 0 -20z m41 20 c3 -5 1 -10 -4 -10 -6 0 -11 5 -11 10 0 6 2 10 4 10 3
0 8 -4 11 -10z m-1230 -30 c-10 -11 -25 -20 -34 -20 -11 0 -6 8 14 24 35 28
47 25 20 -4z m1144 16 c7 -8 8 -17 3 -20 -6 -3 -12 3 -15 14 -6 24 -4 25 12 6z
m221 -56 c0 -5 -11 -10 -24 -10 -14 0 -28 -4 -31 -10 -4 -6 1 -7 12 -4 12 4 9
-3 -10 -20 -31 -29 -59 -33 -76 -12 -13 15 -13 15 59 53 30 15 70 17 70 3z
m-2235 -38 c-28 -15 -29 -17 -8 -20 37 -6 43 -82 7 -82 -8 0 -12 5 -9 10 3 6
-1 10 -10 10 -9 0 -14 4 -11 9 4 5 0 11 -6 14 -10 3 -10 7 -1 18 11 14 13 19
13 38 0 5 8 12 18 14 34 9 36 6 7 -11z m1830 10 c-5 -4 -11 -25 -13 -46 -3
-47 -7 -53 -27 -36 -16 14 -21 45 -5 35 6 -3 10 5 10 19 0 23 11 34 35 35 7 0
7 -2 0 -7z m447 -4 c-8 -8 -8 -17 -1 -30 8 -14 6 -26 -6 -45 -14 -20 -22 -24
-46 -19 -22 4 -29 2 -29 -9 0 -8 6 -15 13 -15 7 0 4 -7 -7 -15 -25 -19 -36
-19 -36 -1 0 8 -6 17 -12 19 -8 4 -4 8 10 12 12 4 22 14 22 22 0 8 -4 11 -10
8 -5 -3 -10 -1 -10 4 0 6 24 27 53 46 52 34 82 46 59 23z m83 2 c3 -5 -1 -10
-10 -10 -9 0 -13 5 -10 10 3 6 8 10 10 10 2 0 7 -4 10 -10z m-495 -10 c0 -5
-2 -10 -4 -10 -3 0 -8 5 -11 10 -3 6 -1 10 4 10 6 0 11 -4 11 -10z m-1920 -4
c0 -11 -19 -15 -25 -6 -3 5 1 10 9 10 9 0 16 -2 16 -4z m705 -17 c11 -17 2
-18 -19 -3 -17 12 -17 14 -4 14 9 0 20 -5 23 -11z m1202 -21 c-3 -8 -6 -5 -6
6 -1 11 2 17 5 13 3 -3 4 -12 1 -19z m-647 2 c0 -5 -9 -10 -21 -10 -11 0 -17
5 -14 10 3 6 13 10 21 10 8 0 14 -4 14 -10z m820 -15 c7 -8 9 -15 5 -15 -4 0
4 -9 19 -21 28 -22 55 -17 35 7 -9 11 -8 14 2 14 26 -1 45 -25 47 -60 3 -29
-3 -41 -27 -63 l-31 -27 -40 17 c-22 10 -38 23 -36 29 3 7 -5 20 -16 31 -21
18 -21 18 -7 -4 7 -12 10 -26 6 -30 -11 -11 -28 19 -23 39 2 10 0 21 -5 24 -5
3 -9 10 -9 17 0 6 22 -10 48 -36 26 -26 51 -47 55 -47 12 0 -12 38 -49 79 -33
37 -33 38 -9 33 31 -6 33 6 3 18 -23 9 -23 9 -2 9 12 1 27 -6 34 -14z m383 0
c7 -18 -6 -27 -27 -19 -11 4 -16 1 -16 -10 0 -16 -21 -22 -33 -10 -6 6 49 51
64 53 4 1 9 -6 12 -14z m-2257 -18 c0 -14 -7 -17 -36 -15 -23 2 -36 9 -38 19
-2 13 5 16 35 15 30 0 39 -4 39 -19z m91 -24 c-7 -6 -46 10 -41 18 3 5 14 3
24 -3 11 -7 18 -13 17 -15z m1093 -18 c-13 -14 -26 -22 -29 -19 -3 3 5 14 19
24 34 27 38 25 10 -5z m1120 12 c-9 -7 -14 -20 -12 -29 2 -13 -7 -19 -40 -25
-94 -20 -96 8 -3 46 57 23 77 26 55 8z m-850 -7 c0 -5 -5 -10 -11 -10 -5 0 -7
5 -4 10 3 6 8 10 11 10 2 0 4 -4 4 -10z m-1565 -9 c3 -5 1 -12 -4 -15 -5 -3
-11 1 -15 9 -6 16 9 21 19 6z m2224 -32 c-13 -9 -27 -15 -32 -12 -5 3 -18 -5
-29 -17 -11 -12 -23 -19 -26 -15 -8 7 34 45 73 66 37 19 47 3 14 -22z m-2149
21 c8 -5 12 -12 8 -15 -10 -10 -49 5 -43 16 8 11 16 11 35 -1z m435 0 c8 -13
-5 -13 -25 0 -13 8 -13 10 2 10 9 0 20 -4 23 -10z m-330 -20 c-3 -5 -13 -10
-21 -10 -8 0 -12 -4 -9 -10 3 -5 -5 -22 -19 -37 -30 -32 -33 -25 -11 18 9 16
13 34 10 39 -4 6 7 10 25 10 18 0 29 -4 25 -10z m400 0 c19 -8 19 -9 -2 -9
-12 -1 -25 4 -28 9 -7 12 2 12 30 0z m-356 -16 c-9 -11 -10 -17 -1 -22 19 -12
-42 -74 -64 -65 -17 6 -18 5 -4 -12 14 -17 14 -17 -7 -4 -25 15 -23 18 42 85
31 33 58 47 34 18z m-159 -4 c0 -5 -2 -10 -4 -10 -3 0 -8 5 -11 10 -3 6 -1 10
4 10 6 0 11 -4 11 -10z m1799 -94 c-2 -2 -19 14 -38 37 l-34 42 38 -37 c22
-21 37 -39 34 -42z m31 38 c0 -19 -16 -10 -31 17 -10 19 -9 20 10 9 12 -6 21
-18 21 -26z m210 26 c0 -5 -5 -10 -11 -10 -5 0 -7 5 -4 10 3 6 8 10 11 10 2 0
4 -4 4 -10z m285 -53 c-2 -18 -4 -43 -5 -57 -1 -14 -4 -20 -7 -13 -3 8 -13 4
-30 -13 -14 -14 -29 -22 -34 -17 -13 13 -19 114 -7 127 6 6 28 10 48 8 35 -4
37 -6 35 -35z m-865 25 c0 -13 -29 -48 -30 -35 0 6 -3 18 -6 27 -4 12 0 16 15
16 12 0 21 -4 21 -8z m290 -7 c7 -9 10 -18 7 -22 -8 -7 -37 15 -37 28 0 14 16
11 30 -6z m633 1 c4 -11 1 -13 -11 -10 -14 5 -13 3 2 -10 17 -13 17 -16 4 -16
-9 0 -19 -6 -21 -12 -3 -7 -6 4 -6 25 -1 38 21 53 32 23z m-996 -3 c-4 -3 -2
-12 4 -20 9 -10 7 -13 -10 -13 -14 0 -21 6 -21 20 0 12 7 20 17 20 9 0 13 -3
10 -7z m523 -3 c0 -5 -6 -10 -14 -10 -8 0 -18 5 -21 10 -3 6 3 10 14 10 12 0
21 -4 21 -10z m287 -55 c-4 -39 -2 -65 3 -65 18 0 10 -19 -10 -25 -11 -3 -19
-9 -19 -13 4 -25 -2 -35 -13 -24 -8 8 -17 8 -30 1 -13 -7 -19 -6 -22 3 -19 57
-25 89 -28 127 -3 50 6 57 81 60 l44 1 -6 -65z m-1887 45 c13 -8 13 -10 0 -14
-21 -7 -98 -16 -82 -10 6 3 12 12 12 20 0 16 47 19 70 4z m1703 -30 c37 -22
45 -46 43 -124 -1 -37 -4 -41 -33 -47 -18 -3 -34 -4 -37 -2 -2 2 -32 6 -67 7
-88 5 -121 15 -117 35 4 16 8 17 86 5 28 -5 42 -3 42 5 0 6 -7 11 -15 11 -8 0
-15 4 -15 10 0 6 18 7 46 3 58 -8 57 12 -2 36 -53 22 -64 30 -64 47 0 35 83
43 133 14z m-1060 -7 c-7 -2 -19 -2 -25 0 -7 3 -2 5 12 5 14 0 19 -2 13 -5z
m-138 -50 c-8 -56 -11 -63 -31 -63 -17 0 -18 -12 -2 -28 6 -6 9 -15 5 -18 -8
-9 -74 41 -87 66 -16 29 13 74 52 81 71 14 71 14 63 -38z m980 27 c7 -12 -2
-12 -30 0 -19 8 -19 9 2 9 12 1 25 -3 28 -9z m-1455 -9 c0 -4 -21 -11 -46 -15
-76 -10 -94 -4 -29 9 78 17 75 16 75 6z m618 -9 c6 -18 -15 -14 -22 4 -4 10
-1 14 6 12 6 -2 14 -10 16 -16z m-488 -12 c0 -5 -4 -10 -10 -10 -5 0 -10 5
-10 10 0 6 5 10 10 10 6 0 10 -4 10 -10z m1145 0 c16 -7 12 -9 -20 -10 -35 -2
-37 -3 -15 -10 l25 -8 -27 -1 c-22 -1 -28 4 -28 19 0 22 28 26 65 10z m-1435
-4 c0 -2 -16 -6 -35 -8 -19 -2 -35 0 -35 4 0 4 16 8 35 8 19 0 35 -2 35 -4z
m101 -27 c-24 -11 -46 -17 -49 -14 -6 6 58 34 78 34 8 0 -5 -9 -29 -20z m949
11 c8 -5 10 -10 4 -10 -6 0 -16 -18 -23 -40 -15 -49 -31 -52 -31 -5 0 19 3 34
8 34 19 -3 23 2 12 16 -10 12 -10 15 1 15 8 0 21 -5 29 -10z m-94 -9 c-3 -4
-1 -23 4 -40 8 -29 7 -31 -6 -20 -8 7 -12 19 -9 27 4 12 3 13 -10 2 -20 -17
-19 -1 2 22 17 19 28 24 19 9z m334 -1 c0 -5 -5 -10 -11 -10 -5 0 -7 5 -4 10
3 6 8 10 11 10 2 0 4 -4 4 -10z m330 0 c0 -13 -30 -13 -50 0 -11 7 -7 10 18
10 17 0 32 -4 32 -10z m-1180 -10 c0 -5 -2 -10 -4 -10 -3 0 -8 5 -11 10 -3 6
-1 10 4 10 6 0 11 -4 11 -10z m276 -5 c4 -8 11 -15 18 -15 6 0 12 -9 13 -20 2
-24 4 -23 -36 -9 -22 8 -30 16 -27 26 3 8 6 19 6 24 0 15 20 10 26 -6z m129 5
c3 -5 -1 -10 -9 -10 -9 0 -16 5 -16 10 0 6 4 10 9 10 6 0 13 -4 16 -10z m838
3 c-7 -2 -21 -2 -30 0 -10 3 -4 5 12 5 17 0 24 -2 18 -5z m-1413 -7 c0 -3 -4
-8 -10 -11 -5 -3 -10 -1 -10 4 0 6 5 11 10 11 6 0 10 -2 10 -4z m1340 -15 c0
-17 -18 -21 -24 -6 -3 9 0 15 9 15 8 0 15 -4 15 -9z m-1166 -20 c5 -8 -32
-131 -39 -131 -24 0 -32 15 -28 53 3 23 10 47 15 54 5 7 7 17 3 23 -4 6 4 10
19 10 14 0 27 -4 30 -9z m781 -6 c26 0 30 -3 27 -25 -3 -24 -68 -135 -104
-176 -11 -12 -30 -22 -44 -23 -13 -1 -32 -2 -41 -3 -10 0 -25 -6 -33 -12 -13
-10 -13 -9 -1 7 11 14 11 21 3 29 -24 24 -13 69 25 106 33 30 34 34 13 27 -24
-7 -24 -7 -5 8 27 21 32 15 40 -46 12 -90 25 -89 24 1 -2 59 2 87 12 95 9 8 9
6 -1 -7 -14 -18 -13 -19 5 -12 11 5 29 8 40 8 18 -1 18 0 -3 12 -12 6 -20 15
-16 19 4 3 12 3 18 -1 6 -4 25 -7 41 -7z m-911 -4 c3 -5 -3 -11 -15 -14 -16
-4 -18 -3 -8 9 13 16 16 17 23 5z m622 -27 c19 -15 34 -31 34 -36 0 -5 -17 4
-37 20 l-38 30 -18 -22 c-18 -21 -13 -3 6 22 13 16 13 16 53 -14z m379 6 c3
-5 1 -10 -4 -10 -6 0 -11 5 -11 10 0 6 2 10 4 10 3 0 8 -4 11 -10z m111 0 c13
0 24 -4 24 -8 0 -12 -69 -2 -77 11 -4 7 0 8 11 4 10 -4 29 -7 42 -7z m-1261
-25 c-16 -8 -39 -14 -50 -14 -13 0 -8 5 15 14 46 18 74 17 35 0z m367 -20 c37
-34 40 -50 15 -82 -7 -10 -12 -9 -24 3 -12 11 -18 12 -23 4 -5 -8 -9 -7 -14 5
-3 9 -10 14 -15 11 -8 -6 -6 44 5 76 7 25 13 23 56 -17z m28 10 c13 -14 21
-25 18 -25 -8 0 -48 36 -48 44 0 10 6 7 30 -19z m156 9 c18 -14 18 -15 -6 -8
-14 3 -32 10 -40 15 -12 7 -11 8 6 9 11 0 29 -7 40 -16z m212 -7 c27 -29 20
-39 -19 -25 -32 11 -31 10 -23 32 8 22 17 20 42 -7z m632 13 c11 -7 7 -10 -17
-10 -18 0 -33 5 -33 10 0 13 30 13 50 0z m-191 -14 c25 -30 -43 -155 -86 -157
-10 0 -28 -2 -41 -3 -12 -2 -30 3 -39 9 -14 11 -14 14 2 39 14 21 20 24 27 14
6 -9 7 -6 3 9 -5 18 -1 25 19 33 29 11 36 22 9 14 -14 -4 -13 -1 5 14 12 11
22 24 22 29 0 14 67 14 79 -1z m291 4 c12 -8 11 -10 -7 -10 -12 0 -25 5 -28
10 -8 13 15 13 35 0z m307 -6 c-3 -3 -12 -4 -19 -1 -8 3 -5 6 6 6 11 1 17 -2
13 -5z m-1258 -13 c11 -7 12 -15 5 -30 -8 -20 -10 -20 -31 -6 -42 29 -16 63
26 36z m71 -1 c13 -8 13 -10 -2 -10 -9 0 -20 5 -23 10 -8 13 5 13 25 0z m1116
3 c-6 -6 -38 -11 -177 -29 -32 -4 -49 -2 -54 7 -5 6 -4 10 1 7 5 -3 52 1 104
7 119 16 135 17 126 8z m-1135 -50 c-12 -20 -14 -14 -5 12 4 9 9 14 11 11 3
-2 0 -13 -6 -23z m669 17 c0 -5 -2 -10 -4 -10 -3 0 -8 5 -11 10 -3 6 -1 10 4
10 6 0 11 -4 11 -10z m178 0 c12 -1 10 -5 -8 -15 -25 -14 -25 -14 -2 -15 12 0
22 -4 22 -10 0 -5 -6 -10 -14 -10 -25 0 -46 12 -46 26 0 10 -7 13 -25 8 -16
-4 -25 -2 -25 6 0 7 6 10 13 7 8 -3 20 -1 28 4 8 5 20 7 27 4 8 -3 21 -5 30
-5z m-753 -10 c3 -6 -1 -7 -9 -4 -18 7 -21 14 -7 14 6 0 13 -4 16 -10z m593
-37 c-9 -12 -9 -15 0 -9 7 4 12 2 12 -8 0 -8 -5 -18 -12 -22 -6 -4 -8 -3 -5 4
5 6 -1 8 -14 5 -16 -4 -17 -8 -7 -14 15 -10 7 -12 -16 -3 -9 3 -13 11 -9 17 4
6 0 8 -9 4 -14 -5 -14 -2 -1 24 12 24 19 28 39 23 16 -4 24 -2 25 7 0 11 2 11
6 1 3 -7 -1 -20 -9 -29z m-603 7 c3 -5 1 -10 -4 -10 -6 0 -11 5 -11 10 0 6 2
10 4 10 3 0 8 -4 11 -10z m685 -24 c0 -3 -4 -8 -10 -11 -5 -3 -10 -1 -10 4 0
6 5 11 10 11 6 0 10 -2 10 -4z"/>
<path d="M2870 3220 c0 -5 5 -10 11 -10 5 0 7 5 4 10 -3 6 -8 10 -11 10 -2 0
-4 -4 -4 -10z"/>
<path d="M2850 2860 c0 -5 5 -10 11 -10 5 0 7 5 4 10 -3 6 -8 10 -11 10 -2 0
-4 -4 -4 -10z"/>
<path d="M3140 2529 c0 -5 5 -7 10 -4 6 3 10 8 10 11 0 2 -4 4 -10 4 -5 0 -10
-5 -10 -11z"/>
<path d="M1750 2260 c0 -5 5 -10 10 -10 6 0 10 5 10 10 0 6 -4 10 -10 10 -5 0
-10 -4 -10 -10z"/>
<path d="M3141 1894 c0 -11 3 -14 6 -6 3 7 2 16 -1 19 -3 4 -6 -2 -5 -13z"/>
<path d="M2396 1857 c3 -10 9 -15 12 -12 3 3 0 11 -7 18 -10 9 -11 8 -5 -6z"/>
<path d="M2370 1780 c0 -5 5 -10 10 -10 6 0 10 5 10 10 0 6 -4 10 -10 10 -5 0
-10 -4 -10 -10z"/>
<path d="M1045 3080 c-3 -5 -1 -10 4 -10 6 0 11 5 11 10 0 6 -2 10 -4 10 -3 0
-8 -4 -11 -10z"/>
<path d="M3415 2900 c-3 -5 -1 -10 4 -10 6 0 11 5 11 10 0 6 -2 10 -4 10 -3 0
-8 -4 -11 -10z"/>
<path d="M4490 2860 c-8 -14 -8 -26 -2 -32 6 -6 12 0 16 17 9 35 1 43 -14 15z"/>
<path d="M3490 2815 c-11 -13 -10 -14 4 -9 9 3 16 10 16 15 0 13 -6 11 -20 -6z"/>
<path d="M940 2750 c0 -5 5 -10 10 -10 6 0 10 5 10 10 0 6 -4 10 -10 10 -5 0
-10 -4 -10 -10z"/>
<path d="M4430 2470 c-13 -11 -21 -22 -19 -24 2 -2 17 7 32 20 15 13 24 24 19
24 -5 0 -19 -9 -32 -20z"/>
<path d="M4462 2196 c7 -8 15 -12 17 -11 5 6 -10 25 -20 25 -5 0 -4 -6 3 -14z"/>
<path d="M4205 2229 c-11 -17 1 -21 15 -4 8 9 8 15 2 15 -6 0 -14 -5 -17 -11z"/>
<path d="M3940 1690 c0 -5 5 -10 11 -10 5 0 7 5 4 10 -3 6 -8 10 -11 10 -2 0
-4 -4 -4 -10z"/>
<path d="M4350 1632 c0 -5 7 -13 16 -16 10 -4 14 -1 12 6 -5 15 -28 23 -28 10z"/>
<path d="M4250 1515 c0 -8 4 -15 10 -15 5 0 7 7 4 15 -4 8 -8 15 -10 15 -2 0
-4 -7 -4 -15z"/>
<path d="M3589 1213 c-13 -15 -12 -15 9 -4 23 12 28 21 13 21 -5 0 -15 -7 -22
-17z"/>
<path d="M1560 1015 c-7 -8 -8 -15 -2 -15 5 0 15 7 22 15 7 8 8 15 2 15 -5 0
-15 -7 -22 -15z"/>
<path d="M3615 910 c-3 -6 1 -7 9 -4 18 7 21 14 7 14 -6 0 -13 -4 -16 -10z"/>
<path d="M3460 871 c0 -11 26 -22 34 -14 3 3 3 10 0 14 -7 12 -34 11 -34 0z"/>
</g>
</svg>
