<svg version="1" xmlns="https://www.w3.org/2000/svg" width="689.333" height="689.333" viewBox="0 0 517.000000 517.000000"><path d="M57.4 4C36.4 9.5 16.3 26.8 7 47.2.6 61.4.9 50.1 1.2 259.5l.3 190 2.7 8c8.5 24.8 30.7 45.3 55.3 51 5.6 1.3 30.9 1.5 198.7 1.2 178.4-.2 192.6-.4 197.1-1.9 20.6-7.3 37.5-21.9 46.7-40.3 7.6-15.3 7 1.9 7-211.5 0-211.9.5-196-6.5-210.5-8.8-18.3-25.4-33.3-44.7-40.3l-7.3-2.7-193-.2C71.5 2.1 64.2 2.2 57.4 4zM362 65.4c11.5 2.8 24 9.5 35.1 18.7 6.8 5.7 17 11.6 28.3 16.5 5.4 2.3 11.1 5.2 12.5 6.3l2.6 2.1-6.5 6.1c-3.6 3.3-7.8 6.7-9.3 7.5-2.6 1.4-3.1 1.3-7.1-1-5.1-3-11.7-8.3-28.1-22.5-18.8-16.3-27-21.3-38.7-23.7-15.7-3.3-30 3.1-49.4 21.8-5 4.8-9.4 8.8-9.7 8.8-2.4 0 .7-11.7 4.6-17.3 5.6-8.1 24.3-19.9 36.7-23.1 7-1.9 21.9-2 29-.2zM256.1 94.6c1.1 1.3 1 1.9-.1 3.7-.8 1.2-6.4 11.9-12.5 23.7-6.1 11.8-14.6 27.6-18.9 35-24.3 41.8-45.5 91.1-51.6 120-2.5 12-2.6 16.6-.2 17.5.9.4 12.3 1.1 25.2 1.6 12.9.5 26.9 1.4 31 1.9 9.6 1.4 16.9 4.7 20.6 9.6 2.6 3.4 2.9 4.4 2.9 11.8 0 9.1-3 19.2-11.5 39.1-16.6 38.9-48.6 90.8-65.3 106.3-7.2 6.5-12.6 5.2-6.8-1.6 12.8-15.1 37.9-58.7 44.4-77.3 6.5-18.5 8.2-33 5.1-42.2-2-5.9-8.7-12-14.9-13.6-2.8-.7-16.8-1.1-38.8-1.1-30.3 0-34.6-.2-35.8-1.6-.9-1.1-1.3-4.6-1.2-11.2.1-15.3 4.6-31.1 16.4-58.2 9.2-21 21-42.6 57.9-106.5 11.9-20.5 23-41.7 23-43.8 0-3.8-3.2-4.1-38-3.8-18.4.1-33.8.5-34.1.9-.3.4-1.8 4.5-3.3 9.2-5.7 17.9-17.1 34.9-20 30.1-2.5-4-6.2-37.1-5.1-45.3l.7-4.7 10.1-.4c5.6-.1 34.8-.4 64.8-.5 48.8-.2 54.8 0 56 1.4zm76.2 17.9c5.7 4.9 13.1 7 18.3 5.3 3.5-1.2 3.9-1.7 4.2-5.1.3-3.7.4-3.7 4.7-3.7h4.4l.3 16.7c.2 10.2-.1 17.3-.7 18-.5.6-4 2.5-7.7 4.1l-6.8 3.1V125h-8.2c-13.4 0-21.8-5.2-21.8-13.5 0-2.3.3-2.5 4.6-2.5 3.8 0 5.3.6 8.7 3.5zm30.6 69.9c3.5 4.1 7 18.6 15.1 61.7 9.3 49.5 15.1 72.1 19.6 76.5 1.6 1.7 2 2.6 1.1 2.9-6.2 2.2-24.8 6.7-27.2 6.7-5.3-.1-7.6-4.1-13.3-23.2-2.9-9.6-5.5-18.2-5.8-19-.4-1.2-1.1-.8-3.1 1.5-17.1 20-27.3 30-34.8 33.7-7.4 3.8-16.5 3.1-27.3-2-9.2-4.3-10.6-7.8-7.7-20 2.4-10 5.7-15.7 22.4-38 8.7-11.4 20.3-27.7 26-36.1 11.6-17.2 11.6-17.2 6-26.9-2.2-3.9-4.1-5.8-7-7.1l-4-1.8 11.8-4.2c16.7-5.9 25.9-7.4 28.2-4.7z"/><path d="M337.4 230.6c-12.8 15-23.1 30.1-31.5 46.3-4.8 9.2-5.4 11-5.4 16.6 0 6.8 1.5 9.9 6.7 13.8 2.9 2.2 10 3.3 15.2 2.3 6-1.1 12.7-8.9 19.2-22.1 3.1-6.2 5.8-13.1 6.1-15.3.4-3-3.8-41.9-5.1-46.6-.1-.5-2.4 1.8-5.2 5z"/></svg>
